<?xml version="1.0" encoding="UTF-8" standalone="no"?>
<!-- Created with Inkscape (http://www.inkscape.org/) -->

<svg
   width="82.410004mm"
   height="70.620003mm"
   viewBox="0 0 82.410004 70.620003"
   version="1.1"
   id="svg11499"
   inkscape:version="1.2 (dc2aeda, 2022-05-15)"
   sodipodi:docname="Slide 4 ODC Product ID LS FC.svg"
   xmlns:inkscape="http://www.inkscape.org/namespaces/inkscape"
   xmlns:sodipodi="http://sodipodi.sourceforge.net/DTD/sodipodi-0.dtd"
   xmlns="http://www.w3.org/2000/svg"
   xmlns:svg="http://www.w3.org/2000/svg">
  <sodipodi:namedview
     id="namedview11501"
     pagecolor="#ffffff"
     bordercolor="#666666"
     borderopacity="1.0"
     inkscape:showpageshadow="2"
     inkscape:pageopacity="0.0"
     inkscape:pagecheckerboard="0"
     inkscape:deskcolor="#d1d1d1"
     inkscape:document-units="mm"
     showgrid="false"
     inkscape:zoom="3.0454277"
     inkscape:cx="56.47811"
     inkscape:cy="139.88183"
     inkscape:window-width="2560"
     inkscape:window-height="1371"
     inkscape:window-x="2621"
     inkscape:window-y="32"
     inkscape:window-maximized="1"
     inkscape:current-layer="layer1" />
  <defs
     id="defs11496">
    <clipPath
       id="presentation_clip_path"
       clipPathUnits="userSpaceOnUse">
   <rect
   x="0"
   y="0"
   width="25400"
   height="19050"
   id="rect2" />

  </clipPath>
    <clipPath
       id="clipPath10410"
       clipPathUnits="userSpaceOnUse">
   <rect
   x="0"
   y="0"
   width="25400"
   height="19050"
   id="rect10408" />

  </clipPath>
    <clipPath
       id="clipPath10414"
       clipPathUnits="userSpaceOnUse">
   <rect
   x="0"
   y="0"
   width="25400"
   height="19050"
   id="rect10412" />

  </clipPath>
    <clipPath
       id="clipPath10418"
       clipPathUnits="userSpaceOnUse">
   <rect
   x="0"
   y="0"
   width="25400"
   height="19050"
   id="rect10416" />

  </clipPath>
    <clipPath
       id="clipPath10422"
       clipPathUnits="userSpaceOnUse">
   <rect
   x="0"
   y="0"
   width="25400"
   height="19050"
   id="rect10420" />

  </clipPath>
    <clipPath
       id="clipPath10426"
       clipPathUnits="userSpaceOnUse">
   <rect
   x="0"
   y="0"
   width="25400"
   height="19050"
   id="rect10424" />

  </clipPath>
    <clipPath
       id="clipPath10430"
       clipPathUnits="userSpaceOnUse">
   <rect
   x="0"
   y="0"
   width="25400"
   height="19050"
   id="rect10428" />

  </clipPath>
    <clipPath
       id="clipPath10434"
       clipPathUnits="userSpaceOnUse">
   <rect
   x="0"
   y="0"
   width="25400"
   height="19050"
   id="rect10432" />

  </clipPath>
    <clipPath
       id="clipPath10438"
       clipPathUnits="userSpaceOnUse">
   <rect
   x="0"
   y="0"
   width="25400"
   height="19050"
   id="rect10436" />

  </clipPath>
    <clipPath
       id="clipPath10442"
       clipPathUnits="userSpaceOnUse">
   <rect
   x="0"
   y="0"
   width="25400"
   height="19050"
   id="rect10440" />

  </clipPath>
    <clipPath
       id="clipPath10446"
       clipPathUnits="userSpaceOnUse">
   <rect
   x="0"
   y="0"
   width="25400"
   height="19050"
   id="rect10444" />

  </clipPath>
    <clipPath
       id="clipPath10450"
       clipPathUnits="userSpaceOnUse">
   <rect
   x="0"
   y="0"
   width="25400"
   height="19050"
   id="rect10448" />

  </clipPath>
    <clipPath
       id="clipPath10454"
       clipPathUnits="userSpaceOnUse">
   <rect
   x="0"
   y="0"
   width="25400"
   height="19050"
   id="rect10452" />

  </clipPath>
    <clipPath
       id="clipPath10458"
       clipPathUnits="userSpaceOnUse">
   <rect
   x="0"
   y="0"
   width="25400"
   height="19050"
   id="rect10456" />

  </clipPath>
    <clipPath
       id="clipPath10462"
       clipPathUnits="userSpaceOnUse">
   <rect
   x="0"
   y="0"
   width="25400"
   height="19050"
   id="rect10460" />

  </clipPath>
    <clipPath
       id="clipPath10466"
       clipPathUnits="userSpaceOnUse">
   <rect
   x="0"
   y="0"
   width="25400"
   height="19050"
   id="rect10464" />

  </clipPath>
    <clipPath
       id="clipPath10470"
       clipPathUnits="userSpaceOnUse">
   <rect
   x="0"
   y="0"
   width="25400"
   height="19050"
   id="rect10468" />

  </clipPath>
    <clipPath
       id="clipPath10474"
       clipPathUnits="userSpaceOnUse">
   <rect
   x="0"
   y="0"
   width="25400"
   height="19050"
   id="rect10472" />

  </clipPath>
    <clipPath
       id="clipPath10478"
       clipPathUnits="userSpaceOnUse">
   <rect
   x="0"
   y="0"
   width="25400"
   height="19050"
   id="rect10476" />

  </clipPath>
    <clipPath
       id="clipPath10482"
       clipPathUnits="userSpaceOnUse">
   <rect
   x="0"
   y="0"
   width="25400"
   height="19050"
   id="rect10480" />

  </clipPath>
    <clipPath
       id="clipPath10486"
       clipPathUnits="userSpaceOnUse">
   <rect
   x="0"
   y="0"
   width="25400"
   height="19050"
   id="rect10484" />

  </clipPath>
    <clipPath
       id="clipPath10490"
       clipPathUnits="userSpaceOnUse">
   <rect
   x="0"
   y="0"
   width="25400"
   height="19050"
   id="rect10488" />

  </clipPath>
    <clipPath
       id="clipPath10494"
       clipPathUnits="userSpaceOnUse">
   <rect
   x="0"
   y="0"
   width="25400"
   height="19050"
   id="rect10492" />

  </clipPath>
    <clipPath
       id="clipPath10498"
       clipPathUnits="userSpaceOnUse">
   <rect
   x="0"
   y="0"
   width="25400"
   height="19050"
   id="rect10496" />

  </clipPath>
    <clipPath
       id="clipPath10502"
       clipPathUnits="userSpaceOnUse">
   <rect
   x="0"
   y="0"
   width="25400"
   height="19050"
   id="rect10500" />

  </clipPath>
    <clipPath
       id="clipPath10506"
       clipPathUnits="userSpaceOnUse">
   <rect
   x="0"
   y="0"
   width="25400"
   height="19050"
   id="rect10504" />

  </clipPath>
    <clipPath
       id="clipPath10510"
       clipPathUnits="userSpaceOnUse">
   <rect
   x="0"
   y="0"
   width="25400"
   height="19050"
   id="rect10508" />

  </clipPath>
    <clipPath
       id="clipPath10514"
       clipPathUnits="userSpaceOnUse">
   <rect
   x="0"
   y="0"
   width="25400"
   height="19050"
   id="rect10512" />

  </clipPath>
    <clipPath
       id="clipPath10518"
       clipPathUnits="userSpaceOnUse">
   <rect
   x="0"
   y="0"
   width="25400"
   height="19050"
   id="rect10516" />

  </clipPath>
    <clipPath
       id="clipPath10522"
       clipPathUnits="userSpaceOnUse">
   <rect
   x="0"
   y="0"
   width="25400"
   height="19050"
   id="rect10520" />

  </clipPath>
    <clipPath
       id="clipPath10526"
       clipPathUnits="userSpaceOnUse">
   <rect
   x="0"
   y="0"
   width="25400"
   height="19050"
   id="rect10524" />

  </clipPath>
    <clipPath
       id="clipPath10530"
       clipPathUnits="userSpaceOnUse">
   <rect
   x="0"
   y="0"
   width="25400"
   height="19050"
   id="rect10528" />

  </clipPath>
    <clipPath
       id="clipPath10534"
       clipPathUnits="userSpaceOnUse">
   <rect
   x="0"
   y="0"
   width="25400"
   height="19050"
   id="rect10532" />

  </clipPath>
    <clipPath
       id="clipPath10538"
       clipPathUnits="userSpaceOnUse">
   <rect
   x="0"
   y="0"
   width="25400"
   height="19050"
   id="rect10536" />

  </clipPath>
    <clipPath
       id="clipPath10542"
       clipPathUnits="userSpaceOnUse">
   <rect
   x="0"
   y="0"
   width="25400"
   height="19050"
   id="rect10540" />

  </clipPath>
    <clipPath
       id="clipPath10546"
       clipPathUnits="userSpaceOnUse">
   <rect
   x="0"
   y="0"
   width="25400"
   height="19050"
   id="rect10544" />

  </clipPath>
    <clipPath
       id="clipPath10550"
       clipPathUnits="userSpaceOnUse">
   <rect
   x="0"
   y="0"
   width="25400"
   height="19050"
   id="rect10548" />

  </clipPath>
    <clipPath
       id="clipPath10554"
       clipPathUnits="userSpaceOnUse">
   <rect
   x="0"
   y="0"
   width="25400"
   height="19050"
   id="rect10552" />

  </clipPath>
    <clipPath
       id="clipPath10558"
       clipPathUnits="userSpaceOnUse">
   <rect
   x="0"
   y="0"
   width="25400"
   height="19050"
   id="rect10556" />

  </clipPath>
    <clipPath
       id="clipPath10562"
       clipPathUnits="userSpaceOnUse">
   <rect
   x="0"
   y="0"
   width="25400"
   height="19050"
   id="rect10560" />

  </clipPath>
    <clipPath
       id="clipPath10566"
       clipPathUnits="userSpaceOnUse">
   <rect
   x="0"
   y="0"
   width="25400"
   height="19050"
   id="rect10564" />

  </clipPath>
    <clipPath
       id="clipPath10570"
       clipPathUnits="userSpaceOnUse">
   <rect
   x="0"
   y="0"
   width="25400"
   height="19050"
   id="rect10568" />

  </clipPath>
    <clipPath
       id="clipPath10574"
       clipPathUnits="userSpaceOnUse">
   <rect
   x="0"
   y="0"
   width="25400"
   height="19050"
   id="rect10572" />

  </clipPath>
    <clipPath
       id="clipPath10578"
       clipPathUnits="userSpaceOnUse">
   <rect
   x="0"
   y="0"
   width="25400"
   height="19050"
   id="rect10576" />

  </clipPath>
    <clipPath
       id="clipPath10582"
       clipPathUnits="userSpaceOnUse">
   <rect
   x="0"
   y="0"
   width="25400"
   height="19050"
   id="rect10580" />

  </clipPath>
    <clipPath
       id="clipPath10586"
       clipPathUnits="userSpaceOnUse">
   <rect
   x="0"
   y="0"
   width="25400"
   height="19050"
   id="rect10584" />

  </clipPath>
    <clipPath
       id="clipPath10590"
       clipPathUnits="userSpaceOnUse">
   <rect
   x="0"
   y="0"
   width="25400"
   height="19050"
   id="rect10588" />

  </clipPath>
    <clipPath
       id="clipPath10594"
       clipPathUnits="userSpaceOnUse">
   <rect
   x="0"
   y="0"
   width="25400"
   height="19050"
   id="rect10592" />

  </clipPath>
    <clipPath
       id="clipPath10598"
       clipPathUnits="userSpaceOnUse">
   <rect
   x="0"
   y="0"
   width="25400"
   height="19050"
   id="rect10596" />

  </clipPath>
  </defs>
  <g
     inkscape:label="Layer 1"
     inkscape:groupmode="layer"
     id="layer1"
     transform="translate(-75.219,-107.25)">
    <path
       fill="#3c78d8"
       stroke="none"
       d="m 15805,13627 c 0,-158 128,-285 285,-285 h 7643 c 76,0 149,30 202,83 53,54 83,126 83,202 v 1141 c 0,157 -127,285 -285,285 h -7643 c -157,0 -285,-128 -285,-285 z"
       id="path1040"
       clip-path="url(#presentation_clip_path)"
       transform="matrix(0.01,0,0,0.01,-82.691,0.59)"
       style="stroke:#5a5a5a;stroke-opacity:1;stroke-width:26.00000012;stroke-dasharray:none" />
    <path
       fill="#f3f3f3"
       stroke="none"
       d="m 18767,14072 c 5,5 8,12 11,19 2,8 3,16 3,25 0,12 -2,24 -7,34 -4,10 -11,19 -19,27 -8,7 -18,13 -30,17 -12,4 -24,6 -38,6 -11,0 -20,-1 -29,-3 -9,-2 -16,-5 -21,-8 -3,4 -6,9 -8,13 -2,4 -3,8 -3,13 0,6 3,11 9,15 6,4 14,6 23,7 l 64,2 c 12,0 23,2 33,5 11,2 19,6 27,12 7,5 13,11 17,19 4,7 6,16 6,26 0,10 -3,21 -7,30 -5,10 -12,18 -22,25 -9,8 -22,14 -37,18 -14,5 -32,7 -53,7 -19,0 -36,-2 -50,-5 -14,-3 -25,-7 -34,-13 -9,-5 -15,-12 -19,-20 -4,-7 -6,-16 -6,-25 0,-12 3,-22 8,-31 5,-8 14,-17 26,-25 -5,-2 -8,-4 -11,-7 -3,-3 -6,-6 -8,-10 -2,-3 -3,-7 -4,-11 -1,-4 -1,-8 -1,-11 0,-11 2,-20 7,-29 5,-8 10,-17 17,-24 -3,-4 -5,-8 -8,-11 -2,-4 -4,-8 -6,-12 -2,-4 -3,-8 -4,-13 -1,-5 -1,-10 -1,-16 0,-13 2,-24 7,-34 4,-11 11,-20 19,-27 8,-8 18,-13 30,-18 12,-4 25,-6 39,-6 6,0 11,1 17,1 5,1 10,2 14,4 h 88 v 34 z m -145,243 c 0,11 6,19 17,25 12,5 29,7 50,7 13,0 24,-1 34,-3 9,-3 16,-6 21,-10 6,-4 10,-8 12,-14 3,-4 4,-10 4,-15 0,-10 -4,-17 -12,-22 -8,-4 -20,-7 -37,-8 l -63,-2 c -5,4 -10,7 -13,10 -4,4 -6,7 -8,11 -2,3 -4,7 -5,10 0,4 0,7 0,11 z m 12,-198 c 0,7 2,15 4,21 3,7 6,12 11,16 5,5 10,8 16,11 7,2 14,3 22,3 8,0 15,-1 22,-4 7,-3 12,-6 16,-11 5,-5 8,-11 10,-17 3,-6 4,-13 4,-19 0,-8 -1,-15 -4,-21 -3,-7 -6,-13 -11,-17 -4,-4 -10,-8 -16,-10 -7,-3 -14,-4 -21,-4 -9,0 -16,2 -23,5 -6,2 -12,6 -16,11 -5,4 -8,10 -10,16 -2,6 -4,13 -4,20 z m 386,163 -1,-33 c -13,13 -27,23 -40,28 -14,6 -28,9 -43,9 -14,0 -26,-2 -36,-5 -10,-4 -18,-9 -24,-15 -6,-6 -11,-13 -14,-22 -3,-8 -4,-17 -4,-27 0,-24 9,-43 27,-57 18,-14 45,-21 80,-21 h 50 v -21 c 0,-14 -5,-26 -14,-34 -9,-9 -23,-13 -41,-13 -14,0 -28,1 -41,5 -13,3 -27,7 -41,13 v -39 c 5,-1 11,-3 18,-5 6,-2 13,-3 20,-5 7,-1 15,-2 23,-3 8,-1 16,-2 24,-2 15,0 28,2 39,5 12,3 22,8 30,15 8,6 14,15 19,25 4,10 6,21 6,35 v 167 z m -5,-110 h -53 c -11,0 -19,1 -27,3 -8,2 -14,5 -19,9 -4,3 -8,8 -11,14 -2,5 -3,11 -3,17 0,5 1,10 2,14 2,4 4,8 7,11 4,4 8,6 13,8 5,2 11,3 19,3 9,0 20,-3 33,-9 12,-6 25,-15 39,-28 z m 353,208 h -271 v -34 h 271 z m 122,-405 h -72 v -35 h 114 v 306 h 72 v 36 h -194 v -36 h 80 z m 380,240 c 0,9 -1,17 -4,24 -3,6 -7,12 -12,17 -5,6 -11,10 -17,14 -7,4 -14,7 -21,9 -8,2 -16,4 -24,5 -8,1 -15,2 -23,2 -16,0 -31,-1 -45,-2 -14,-2 -27,-4 -40,-7 v -39 c 14,4 28,7 42,10 14,2 28,3 42,3 20,0 35,-3 44,-9 10,-5 15,-13 15,-23 0,-4 -1,-8 -3,-11 -1,-4 -4,-7 -8,-10 -4,-4 -10,-7 -19,-10 -8,-4 -20,-8 -34,-12 -11,-3 -21,-7 -31,-11 -9,-4 -17,-9 -24,-14 -6,-6 -11,-13 -15,-20 -4,-8 -6,-17 -6,-27 0,-7 1,-14 5,-22 3,-8 8,-16 15,-22 8,-8 18,-13 31,-18 13,-4 29,-7 48,-7 10,0 20,1 32,2 12,1 24,3 36,5 v 37 c -13,-3 -26,-5 -38,-6 -11,-2 -21,-3 -30,-3 -11,0 -20,1 -27,3 -7,1 -12,3 -17,6 -4,3 -8,6 -10,10 -1,4 -2,8 -2,12 0,5 0,9 2,12 2,4 5,7 10,10 4,4 11,7 19,10 8,3 19,7 32,11 14,4 26,8 36,13 10,5 18,10 24,15 6,6 11,12 13,19 3,8 4,16 4,24 z m 313,165 h -272 v -34 h 272 z m 254,-401 c -22,-4 -41,-7 -57,-7 -38,0 -57,21 -57,60 v 43 h 107 v 35 h -107 v 172 h -42 v -172 h -78 v -35 h 78 v -40 c 0,-66 33,-98 101,-98 16,0 35,2 55,6 z m -253,61 z m 498,232 c -11,5 -23,8 -34,10 -12,2 -23,3 -35,3 -39,0 -68,-10 -89,-31 -21,-21 -31,-51 -31,-91 0,-19 3,-36 9,-52 6,-15 14,-29 25,-40 11,-11 24,-20 38,-26 16,-6 32,-9 50,-9 13,0 24,1 35,3 11,2 22,4 32,9 v 40 c -11,-6 -22,-10 -33,-12 -10,-3 -22,-4 -33,-4 -11,0 -21,2 -31,6 -9,4 -17,10 -25,18 -7,7 -13,17 -17,28 -4,11 -6,24 -6,38 0,29 7,51 21,65 14,15 34,22 59,22 12,0 23,-1 34,-4 10,-2 21,-6 31,-11 z m 316,108 h -272 v -34 h 272 z m 237,-194 c 0,14 -3,27 -9,39 -6,12 -14,23 -25,32 -11,9 -25,16 -42,21 -17,5 -37,8 -60,8 -13,0 -24,-1 -34,-2 -10,0 -19,-1 -28,-2 v -38 c 10,2 21,3 32,4 11,1 22,1 34,1 16,0 29,-1 40,-4 11,-3 20,-7 28,-12 7,-5 12,-11 15,-19 3,-8 5,-16 5,-26 0,-8 -2,-16 -6,-22 -4,-7 -9,-12 -16,-16 -7,-5 -16,-8 -25,-10 -10,-2 -21,-4 -32,-4 h -36 v -34 h 36 c 10,0 18,-1 26,-4 8,-2 15,-6 20,-10 6,-5 10,-11 13,-18 3,-7 5,-14 5,-23 0,-17 -6,-29 -16,-37 -10,-7 -25,-11 -45,-11 -11,0 -22,1 -33,3 -11,2 -23,5 -36,9 v -38 c 5,-2 11,-3 17,-5 6,-1 13,-2 19,-3 6,-1 12,-2 18,-3 6,0 12,-1 18,-1 17,0 31,2 44,6 13,3 23,9 32,15 8,8 15,16 19,26 4,10 6,20 6,32 0,18 -4,33 -14,46 -9,12 -21,22 -37,29 8,1 16,4 24,7 8,4 15,9 21,15 7,6 12,14 16,22 4,8 6,17 6,27 z"
       id="path1059"
       clip-path="url(#presentation_clip_path)"
       transform="matrix(0.01,0,0,0.01,-82.691,0.59)" />
    <path
       fill="#eeeeee"
       stroke="none"
       d="m 15805,10679 h 2275 975 650 v 865 371 247 h -650 l -256,790 -719,-790 h -2275 v -247 -371 z"
       id="path1066"
       clip-path="url(#presentation_clip_path)"
       transform="matrix(0.01,0,0,0.01,-82.691,0.59)"
       style="stroke:#5a5a5a;stroke-opacity:1;stroke-width:26.00000012;stroke-dasharray:none" />
    <path
       fill="#eeeeee"
       stroke="none"
       d="m 15805,16228 h 2233 l 1608,-817 -651,817 h 638 v 247 370 866 h -638 -957 -2233 v -866 -370 z"
       id="path1093"
       clip-path="url(#presentation_clip_path)"
       transform="matrix(0.01,0,0,0.01,-82.691,0.59)"
       style="stroke:#5a5a5a;stroke-opacity:1;stroke-width:26.00000012;stroke-dasharray:none" />
    <text
       class="SVGTextShape"
       id="text1113"
       clip-path="url(#presentation_clip_path)"
       transform="matrix(0.01,0,0,0.01,-82.691,0.59)"><tspan
         class="TextParagraph"
         font-family="Arial, sans-serif"
         font-size="423px"
         font-weight="400"
         id="tspan1111"><tspan
           class="TextPosition"
           x="16555"
           y="11578"
           id="tspan1109"><tspan
             fill="#000000"
             stroke="none"
             style="white-space:pre"
             id="tspan1107">Organisation</tspan></tspan></tspan></text>
    <path
       fill="#eeeeee"
       stroke="none"
       d="m 20191,16230 h 638 l -324,-799 1281,799 h 2232 v 247 371 866 h -2232 -957 -638 v -866 -371 z"
       id="path1120"
       clip-path="url(#presentation_clip_path)"
       transform="matrix(0.01,0,0,0.01,-82.691,0.59)"
       style="stroke:#5a5a5a;stroke-opacity:1;stroke-width:26.00000012;stroke-dasharray:none" />
    <text
       class="SVGTextShape"
       id="text1140"
       clip-path="url(#presentation_clip_path)"
       transform="matrix(0.01,0,0,0.01,-82.691,0.59)"><tspan
         class="TextParagraph"
         font-family="Arial, sans-serif"
         font-size="423px"
         font-weight="400"
         id="tspan1138"><tspan
           class="TextPosition"
           x="16931"
           y="17126"
           id="tspan1136"><tspan
             fill="#000000"
             stroke="none"
             style="white-space:pre"
             id="tspan1134">Platform</tspan></tspan></tspan></text>
    <text
       class="SVGTextShape"
       id="text1153"
       clip-path="url(#presentation_clip_path)"
       transform="matrix(0.01,0,0,0.01,-82.691,0.59)"><tspan
         class="TextParagraph"
         font-family="Arial, sans-serif"
         font-size="423px"
         font-weight="400"
         id="tspan1151"><tspan
           class="TextPosition"
           x="20469"
           y="16878"
           id="tspan1149"><tspan
             fill="#000000"
             stroke="none"
             style="white-space:pre"
             id="tspan1147">Product / Product </tspan></tspan></tspan></text>
    <path
       fill="#eeeeee"
       stroke="none"
       d="m 20118,10679 h 650 976 2274 v 865 371 247 h -2274 l -492,790 -484,-790 h -650 v -247 -371 z"
       id="path1160"
       clip-path="url(#presentation_clip_path)"
       transform="matrix(0.01,0,0,0.01,-82.691,0.59)"
       style="stroke:#5a5a5a;stroke-opacity:1;stroke-width:26.00000012;stroke-dasharray:none" />
    <text
       class="SVGTextShape"
       id="text1180"
       clip-path="url(#presentation_clip_path)"
       transform="matrix(0.01,0,0,0.01,-82.691,0.59)"><tspan
         class="TextParagraph"
         font-family="Arial, sans-serif"
         font-size="423px"
         font-weight="400"
         id="tspan1178"><tspan
           class="TextPosition"
           x="21658"
           y="17380"
           id="tspan1176"><tspan
             fill="#000000"
             stroke="none"
             style="white-space:pre"
             id="tspan1174">suite</tspan></tspan></tspan></text>
    <path
       fill="none"
       stroke="#595959"
       stroke-width="26"
       stroke-linejoin="round"
       d="m 18564,13796 v -293 h 221 v -293 293 h 304 v 85 208"
       id="path1197"
       clip-path="url(#presentation_clip_path)"
       transform="matrix(0.01,0,0,0.01,-82.691,0.59)" />
    <path
       fill="none"
       stroke="#595959"
       stroke-width="26"
       stroke-linejoin="round"
       d="m 20930,13796 v -293 h 318 v -293 293 h 79 v 85 208"
       id="path1214"
       clip-path="url(#presentation_clip_path)"
       transform="matrix(0.01,0,0,0.01,-82.691,0.59)" />
    <path
       fill="none"
       stroke="#595959"
       stroke-width="26"
       stroke-linejoin="round"
       d="m 19900,14568 v 299 h -254 v 298 -298 h -255 v -87 -212"
       id="path1231"
       clip-path="url(#presentation_clip_path)"
       transform="matrix(0.01,0,0,0.01,-82.691,0.59)" />
    <path
       fill="none"
       stroke="#595959"
       stroke-width="26"
       stroke-linejoin="round"
       d="m 20770,14568 v 299 h -268 v 298 -298 h -267 v -87 -212"
       id="path1248"
       clip-path="url(#presentation_clip_path)"
       transform="matrix(0.01,0,0,0.01,-82.691,0.59)" />
    <text
       class="SVGTextShape"
       id="text1261"
       clip-path="url(#presentation_clip_path)"
       transform="matrix(0.01,0,0,0.01,-82.691,0.59)"><tspan
         class="TextParagraph"
         font-family="Arial, sans-serif"
         font-size="423px"
         font-weight="400"
         id="tspan1259"><tspan
           class="TextPosition"
           x="21139"
           y="11578"
           id="tspan1257"><tspan
             fill="#000000"
             stroke="none"
             style="white-space:pre"
             id="tspan1255">Collection</tspan></tspan></tspan></text>
  </g>
</svg>
