<svg aria-roledescription="gantt" role="graphics-document document" style="overflow: hidden; max-width: 100%;" xmlns="http://www.w3.org/2000/svg" width="100%" id="graph-div" height="100%" xmlns:xlink="http://www.w3.org/1999/xlink" xmlns:ev="http://www.w3.org/2001/xml-events"><style>@import url("https://cdnjs.cloudflare.com/ajax/libs/font-awesome/6.5.1/css/all.min.css");'</style><g id="viewport-20240313013615183" class="svg-pan-zoom_viewport" transform="matrix(0.3840146351605654,0,0,0.3840146351605654,278.02928884970805,332.6624197597495)" style="transform: matrix(0.384015, 0, 0, 0.384015, 278.029, 332.662);"><style>#graph-div{font-family:"trebuchet ms",verdana,arial,sans-serif;font-size:16px;fill:#333;}#graph-div .error-icon{fill:#552222;}#graph-div .error-text{fill:#552222;stroke:#552222;}#graph-div .edge-thickness-normal{stroke-width:2px;}#graph-div .edge-thickness-thick{stroke-width:3.5px;}#graph-div .edge-pattern-solid{stroke-dasharray:0;}#graph-div .edge-pattern-dashed{stroke-dasharray:3;}#graph-div .edge-pattern-dotted{stroke-dasharray:2;}#graph-div .marker{fill:#333333;stroke:#333333;}#graph-div .marker.cross{stroke:#333333;}#graph-div svg{font-family:"trebuchet ms",verdana,arial,sans-serif;font-size:16px;}#graph-div .mermaid-main-font{font-family:var(--mermaid-font-family, "trebuchet ms", verdana, arial, sans-serif);}#graph-div .exclude-range{fill:#eeeeee;}#graph-div .section{stroke:none;opacity:0.2;}#graph-div .section0{fill:rgba(102, 102, 255, 0.49);}#graph-div .section2{fill:#fff400;}#graph-div .section1,#graph-div .section3{fill:white;opacity:0.2;}#graph-div .sectionTitle0{fill:#333;}#graph-div .sectionTitle1{fill:#333;}#graph-div .sectionTitle2{fill:#333;}#graph-div .sectionTitle3{fill:#333;}#graph-div .sectionTitle{text-anchor:start;font-family:var(--mermaid-font-family, "trebuchet ms", verdana, arial, sans-serif);}#graph-div .grid .tick{stroke:lightgrey;opacity:0.8;shape-rendering:crispEdges;}#graph-div .grid .tick text{font-family:"trebuchet ms",verdana,arial,sans-serif;fill:#333;}#graph-div .grid path{stroke-width:0;}#graph-div .today{fill:none;stroke:red;stroke-width:2px;}#graph-div .task{stroke-width:2;}#graph-div .taskText{text-anchor:middle;font-family:var(--mermaid-font-family, "trebuchet ms", verdana, arial, sans-serif);}#graph-div .taskTextOutsideRight{fill:black;text-anchor:start;font-family:var(--mermaid-font-family, "trebuchet ms", verdana, arial, sans-serif);}#graph-div .taskTextOutsideLeft{fill:black;text-anchor:end;}#graph-div .task.clickable{cursor:pointer;}#graph-div .taskText.clickable{cursor:pointer;fill:#003163!important;font-weight:bold;}#graph-div .taskTextOutsideLeft.clickable{cursor:pointer;fill:#003163!important;font-weight:bold;}#graph-div .taskTextOutsideRight.clickable{cursor:pointer;fill:#003163!important;font-weight:bold;}#graph-div .taskText0,#graph-div .taskText1,#graph-div .taskText2,#graph-div .taskText3{fill:white;}#graph-div .task0,#graph-div .task1,#graph-div .task2,#graph-div .task3{fill:#8a90dd;stroke:#534fbc;}#graph-div .taskTextOutside0,#graph-div .taskTextOutside2{fill:black;}#graph-div .taskTextOutside1,#graph-div .taskTextOutside3{fill:black;}#graph-div .active0,#graph-div .active1,#graph-div .active2,#graph-div .active3{fill:#bfc7ff;stroke:#534fbc;}#graph-div .activeText0,#graph-div .activeText1,#graph-div .activeText2,#graph-div .activeText3{fill:black!important;}#graph-div .done0,#graph-div .done1,#graph-div .done2,#graph-div .done3{stroke:grey;fill:lightgrey;stroke-width:2;}#graph-div .doneText0,#graph-div .doneText1,#graph-div .doneText2,#graph-div .doneText3{fill:black!important;}#graph-div .crit0,#graph-div .crit1,#graph-div .crit2,#graph-div .crit3{stroke:#ff8888;fill:red;stroke-width:2;}#graph-div .activeCrit0,#graph-div .activeCrit1,#graph-div .activeCrit2,#graph-div .activeCrit3{stroke:#ff8888;fill:#bfc7ff;stroke-width:2;}#graph-div .doneCrit0,#graph-div .doneCrit1,#graph-div .doneCrit2,#graph-div .doneCrit3{stroke:#ff8888;fill:lightgrey;stroke-width:2;cursor:pointer;shape-rendering:crispEdges;}#graph-div .milestone{transform:rotate(45deg) scale(0.8,0.8);}#graph-div .milestoneText{font-style:italic;}#graph-div .doneCritText0,#graph-div .doneCritText1,#graph-div .doneCritText2,#graph-div .doneCritText3{fill:black!important;}#graph-div .activeCritText0,#graph-div .activeCritText1,#graph-div .activeCritText2,#graph-div .activeCritText3{fill:black!important;}#graph-div .titleText{text-anchor:middle;font-size:18px;fill:#333;font-family:var(--mermaid-font-family, "trebuchet ms", verdana, arial, sans-serif);}#graph-div :root{--mermaid-font-family:"trebuchet ms",verdana,arial,sans-serif;}</style><g></g><g text-anchor="middle" font-family="sans-serif" font-size="10" fill="none" transform="translate(75, 146)" class="grid"><path d="M0.5,-111V0.5H1770.5V-111" stroke="currentColor" class="domain"></path><g transform="translate(186.5,0)" opacity="1" class="tick"><line y2="-111" stroke="currentColor"></line><text style="text-anchor: middle;" font-size="10" stroke="none" dy="1em" y="3" fill="#000">1990</text></g><g transform="translate(419.5,0)" opacity="1" class="tick"><line y2="-111" stroke="currentColor"></line><text style="text-anchor: middle;" font-size="10" stroke="none" dy="1em" y="3" fill="#000">1995</text></g><g transform="translate(652.5,0)" opacity="1" class="tick"><line y2="-111" stroke="currentColor"></line><text style="text-anchor: middle;" font-size="10" stroke="none" dy="1em" y="3" fill="#000">2000</text></g><g transform="translate(885.5,0)" opacity="1" class="tick"><line y2="-111" stroke="currentColor"></line><text style="text-anchor: middle;" font-size="10" stroke="none" dy="1em" y="3" fill="#000">2005</text></g><g transform="translate(1118.5,0)" opacity="1" class="tick"><line y2="-111" stroke="currentColor"></line><text style="text-anchor: middle;" font-size="10" stroke="none" dy="1em" y="3" fill="#000">2010</text></g><g transform="translate(1351.5,0)" opacity="1" class="tick"><line y2="-111" stroke="currentColor"></line><text style="text-anchor: middle;" font-size="10" stroke="none" dy="1em" y="3" fill="#000">2015</text></g><g transform="translate(1584.5,0)" opacity="1" class="tick"><line y2="-111" stroke="currentColor"></line><text style="text-anchor: middle;" font-size="10" stroke="none" dy="1em" y="3" fill="#000">2020</text></g></g><g><rect class="section section0" height="24" width="1882.5" y="48" x="0"></rect><rect class="section section0" height="24" width="1882.5" y="72" x="0"></rect><rect class="section section0" height="24" width="1882.5" y="96" x="0"></rect><rect class="section section0" height="24" width="1882.5" y="120" x="0"></rect></g><g><rect class="task task0" transform-origin="657px 60px" height="20" width="1164" y="50" x="75" ry="3" rx="3" id="task1"></rect><rect class="task task0" transform-origin="1193px 84px" height="20" width="1024" y="74" x="681" ry="3" rx="3" id="task2"></rect><rect class="task task0" transform-origin="1589px 108px" height="20" width="512" y="98" x="1333" ry="3" rx="3" id="task3"></rect><rect class="task task0" transform-origin="1798.5px 132px" height="20" width="93" y="122" x="1752" ry="3" rx="3" id="task4"></rect><text class="taskText taskText0  width-108.75" y="63.5" x="657" font-size="11" id="task1-text">Landsat 5 (1986–2011) </text><text class="taskText taskText0  width-108.75" y="87.5" x="1193" font-size="11" id="task2-text">Landsat 7 (1999–2021) </text><text class="taskText taskText0  width-108.75" y="111.5" x="1589" font-size="11" id="task3-text">Landsat 8 (2013–2024) </text><text class="taskTextOutsideLeft taskTextOutside0" y="135.5" x="1747" font-size="11" id="task4-text">Landsat 9 (2022–Today) </text></g><g><text class="sectionTitle sectionTitle0" font-size="11" y="98" x="10" dy="0em"><tspan x="10" alignment-baseline="central">~</tspan></text></g><text class="titleText" y="25" x="960"></text></g><defs><style id="svg-pan-zoom-controls-styles" type="text/css">.svg-pan-zoom-control { cursor: pointer; fill: black; fill-opacity: 0.333; } .svg-pan-zoom-control:hover { fill-opacity: 0.8; } .svg-pan-zoom-control-background { fill: white; fill-opacity: 0.5; } .svg-pan-zoom-control-background { fill-opacity: 0.8; }</style></defs><g id="svg-pan-zoom-controls" transform="translate(1046 686) scale(0.75)" class="svg-pan-zoom-control"><g id="svg-pan-zoom-zoom-in" transform="translate(30.5 5) scale(0.015)" class="svg-pan-zoom-control"><rect x="0" y="0" width="1500" height="1400" class="svg-pan-zoom-control-background"></rect><path d="M1280 576v128q0 26 -19 45t-45 19h-320v320q0 26 -19 45t-45 19h-128q-26 0 -45 -19t-19 -45v-320h-320q-26 0 -45 -19t-19 -45v-128q0 -26 19 -45t45 -19h320v-320q0 -26 19 -45t45 -19h128q26 0 45 19t19 45v320h320q26 0 45 19t19 45zM1536 1120v-960 q0 -119 -84.5 -203.5t-203.5 -84.5h-960q-119 0 -203.5 84.5t-84.5 203.5v960q0 119 84.5 203.5t203.5 84.5h960q119 0 203.5 -84.5t84.5 -203.5z" class="svg-pan-zoom-control-element"></path></g><g id="svg-pan-zoom-reset-pan-zoom" transform="translate(5 35) scale(0.4)" class="svg-pan-zoom-control"><rect x="2" y="2" width="182" height="58" class="svg-pan-zoom-control-background"></rect><path d="M33.051,20.632c-0.742-0.406-1.854-0.609-3.338-0.609h-7.969v9.281h7.769c1.543,0,2.701-0.188,3.473-0.562c1.365-0.656,2.048-1.953,2.048-3.891C35.032,22.757,34.372,21.351,33.051,20.632z" class="svg-pan-zoom-control-element"></path><path d="M170.231,0.5H15.847C7.102,0.5,0.5,5.708,0.5,11.84v38.861C0.5,56.833,7.102,61.5,15.847,61.5h154.384c8.745,0,15.269-4.667,15.269-10.798V11.84C185.5,5.708,178.976,0.5,170.231,0.5z M42.837,48.569h-7.969c-0.219-0.766-0.375-1.383-0.469-1.852c-0.188-0.969-0.289-1.961-0.305-2.977l-0.047-3.211c-0.03-2.203-0.41-3.672-1.142-4.406c-0.732-0.734-2.103-1.102-4.113-1.102h-7.05v13.547h-7.055V14.022h16.524c2.361,0.047,4.178,0.344,5.45,0.891c1.272,0.547,2.351,1.352,3.234,2.414c0.731,0.875,1.31,1.844,1.737,2.906s0.64,2.273,0.64,3.633c0,1.641-0.414,3.254-1.242,4.84s-2.195,2.707-4.102,3.363c1.594,0.641,2.723,1.551,3.387,2.73s0.996,2.98,0.996,5.402v2.32c0,1.578,0.063,2.648,0.19,3.211c0.19,0.891,0.635,1.547,1.333,1.969V48.569z M75.579,48.569h-26.18V14.022h25.336v6.117H56.454v7.336h16.781v6H56.454v8.883h19.125V48.569z M104.497,46.331c-2.44,2.086-5.887,3.129-10.34,3.129c-4.548,0-8.125-1.027-10.731-3.082s-3.909-4.879-3.909-8.473h6.891c0.224,1.578,0.662,2.758,1.316,3.539c1.196,1.422,3.246,2.133,6.15,2.133c1.739,0,3.151-0.188,4.236-0.562c2.058-0.719,3.087-2.055,3.087-4.008c0-1.141-0.504-2.023-1.512-2.648c-1.008-0.609-2.607-1.148-4.796-1.617l-3.74-0.82c-3.676-0.812-6.201-1.695-7.576-2.648c-2.328-1.594-3.492-4.086-3.492-7.477c0-3.094,1.139-5.664,3.417-7.711s5.623-3.07,10.036-3.07c3.685,0,6.829,0.965,9.431,2.895c2.602,1.93,3.966,4.73,4.093,8.402h-6.938c-0.128-2.078-1.057-3.555-2.787-4.43c-1.154-0.578-2.587-0.867-4.301-0.867c-1.907,0-3.428,0.375-4.565,1.125c-1.138,0.75-1.706,1.797-1.706,3.141c0,1.234,0.561,2.156,1.682,2.766c0.721,0.406,2.25,0.883,4.589,1.43l6.063,1.43c2.657,0.625,4.648,1.461,5.975,2.508c2.059,1.625,3.089,3.977,3.089,7.055C108.157,41.624,106.937,44.245,104.497,46.331z M139.61,48.569h-26.18V14.022h25.336v6.117h-18.281v7.336h16.781v6h-16.781v8.883h19.125V48.569z M170.337,20.14h-10.336v28.43h-7.266V20.14h-10.383v-6.117h27.984V20.14z" class="svg-pan-zoom-control-element"></path></g><g id="svg-pan-zoom-zoom-out" transform="translate(30.5 70) scale(0.015)" class="svg-pan-zoom-control"><rect x="0" y="0" width="1500" height="1400" class="svg-pan-zoom-control-background"></rect><path d="M1280 576v128q0 26 -19 45t-45 19h-896q-26 0 -45 -19t-19 -45v-128q0 -26 19 -45t45 -19h896q26 0 45 19t19 45zM1536 1120v-960q0 -119 -84.5 -203.5t-203.5 -84.5h-960q-119 0 -203.5 84.5t-84.5 203.5v960q0 119 84.5 203.5t203.5 84.5h960q119 0 203.5 -84.5 t84.5 -203.5z" class="svg-pan-zoom-control-element"></path></g></g></svg>