<?xml version="1.0" encoding="UTF-8" standalone="no"?>
<!-- Created with Inkscape (http://www.inkscape.org/) -->

<svg
   width="82.410004mm"
   height="70.620003mm"
   viewBox="0 0 82.410004 70.620003"
   version="1.1"
   id="svg7619"
   inkscape:version="1.2 (dc2aeda, 2022-05-15)"
   sodipodi:docname="Slide 4 ODC Product ID LS ARD.svg"
   xmlns:inkscape="http://www.inkscape.org/namespaces/inkscape"
   xmlns:sodipodi="http://sodipodi.sourceforge.net/DTD/sodipodi-0.dtd"
   xmlns="http://www.w3.org/2000/svg"
   xmlns:svg="http://www.w3.org/2000/svg">
  <sodipodi:namedview
     id="namedview7621"
     pagecolor="#ffffff"
     bordercolor="#666666"
     borderopacity="1.0"
     inkscape:showpageshadow="2"
     inkscape:pageopacity="0.0"
     inkscape:pagecheckerboard="0"
     inkscape:deskcolor="#d1d1d1"
     inkscape:document-units="mm"
     showgrid="false"
     inkscape:zoom="3.7551643"
     inkscape:cx="121.69907"
     inkscape:cy="130.75327"
     inkscape:window-width="2560"
     inkscape:window-height="1371"
     inkscape:window-x="2621"
     inkscape:window-y="32"
     inkscape:window-maximized="1"
     inkscape:current-layer="layer1" />
  <defs
     id="defs7616">
    <clipPath
       id="presentation_clip_path"
       clipPathUnits="userSpaceOnUse">
   <rect
   x="0"
   y="0"
   width="25400"
   height="19050"
   id="rect2" />

  </clipPath>
    <clipPath
       id="clipPath6312"
       clipPathUnits="userSpaceOnUse">
   <rect
   x="0"
   y="0"
   width="25400"
   height="19050"
   id="rect6310" />

  </clipPath>
    <clipPath
       id="clipPath6316"
       clipPathUnits="userSpaceOnUse">
   <rect
   x="0"
   y="0"
   width="25400"
   height="19050"
   id="rect6314" />

  </clipPath>
    <clipPath
       id="clipPath6320"
       clipPathUnits="userSpaceOnUse">
   <rect
   x="0"
   y="0"
   width="25400"
   height="19050"
   id="rect6318" />

  </clipPath>
    <clipPath
       id="clipPath6324"
       clipPathUnits="userSpaceOnUse">
   <rect
   x="0"
   y="0"
   width="25400"
   height="19050"
   id="rect6322" />

  </clipPath>
    <clipPath
       id="clipPath6328"
       clipPathUnits="userSpaceOnUse">
   <rect
   x="0"
   y="0"
   width="25400"
   height="19050"
   id="rect6326" />

  </clipPath>
    <clipPath
       id="clipPath6332"
       clipPathUnits="userSpaceOnUse">
   <rect
   x="0"
   y="0"
   width="25400"
   height="19050"
   id="rect6330" />

  </clipPath>
    <clipPath
       id="clipPath6336"
       clipPathUnits="userSpaceOnUse">
   <rect
   x="0"
   y="0"
   width="25400"
   height="19050"
   id="rect6334" />

  </clipPath>
    <clipPath
       id="clipPath6340"
       clipPathUnits="userSpaceOnUse">
   <rect
   x="0"
   y="0"
   width="25400"
   height="19050"
   id="rect6338" />

  </clipPath>
    <clipPath
       id="clipPath6344"
       clipPathUnits="userSpaceOnUse">
   <rect
   x="0"
   y="0"
   width="25400"
   height="19050"
   id="rect6342" />

  </clipPath>
    <clipPath
       id="clipPath6348"
       clipPathUnits="userSpaceOnUse">
   <rect
   x="0"
   y="0"
   width="25400"
   height="19050"
   id="rect6346" />

  </clipPath>
    <clipPath
       id="clipPath6352"
       clipPathUnits="userSpaceOnUse">
   <rect
   x="0"
   y="0"
   width="25400"
   height="19050"
   id="rect6350" />

  </clipPath>
    <clipPath
       id="clipPath6356"
       clipPathUnits="userSpaceOnUse">
   <rect
   x="0"
   y="0"
   width="25400"
   height="19050"
   id="rect6354" />

  </clipPath>
    <clipPath
       id="clipPath6360"
       clipPathUnits="userSpaceOnUse">
   <rect
   x="0"
   y="0"
   width="25400"
   height="19050"
   id="rect6358" />

  </clipPath>
    <clipPath
       id="clipPath6364"
       clipPathUnits="userSpaceOnUse">
   <rect
   x="0"
   y="0"
   width="25400"
   height="19050"
   id="rect6362" />

  </clipPath>
    <clipPath
       id="clipPath6368"
       clipPathUnits="userSpaceOnUse">
   <rect
   x="0"
   y="0"
   width="25400"
   height="19050"
   id="rect6366" />

  </clipPath>
    <clipPath
       id="clipPath6372"
       clipPathUnits="userSpaceOnUse">
   <rect
   x="0"
   y="0"
   width="25400"
   height="19050"
   id="rect6370" />

  </clipPath>
    <clipPath
       id="clipPath6376"
       clipPathUnits="userSpaceOnUse">
   <rect
   x="0"
   y="0"
   width="25400"
   height="19050"
   id="rect6374" />

  </clipPath>
    <clipPath
       id="clipPath6380"
       clipPathUnits="userSpaceOnUse">
   <rect
   x="0"
   y="0"
   width="25400"
   height="19050"
   id="rect6378" />

  </clipPath>
    <clipPath
       id="clipPath6384"
       clipPathUnits="userSpaceOnUse">
   <rect
   x="0"
   y="0"
   width="25400"
   height="19050"
   id="rect6382" />

  </clipPath>
    <clipPath
       id="clipPath6388"
       clipPathUnits="userSpaceOnUse">
   <rect
   x="0"
   y="0"
   width="25400"
   height="19050"
   id="rect6386" />

  </clipPath>
    <clipPath
       id="clipPath6392"
       clipPathUnits="userSpaceOnUse">
   <rect
   x="0"
   y="0"
   width="25400"
   height="19050"
   id="rect6390" />

  </clipPath>
    <clipPath
       id="clipPath6396"
       clipPathUnits="userSpaceOnUse">
   <rect
   x="0"
   y="0"
   width="25400"
   height="19050"
   id="rect6394" />

  </clipPath>
    <clipPath
       id="clipPath6400"
       clipPathUnits="userSpaceOnUse">
   <rect
   x="0"
   y="0"
   width="25400"
   height="19050"
   id="rect6398" />

  </clipPath>
    <clipPath
       id="clipPath6404"
       clipPathUnits="userSpaceOnUse">
   <rect
   x="0"
   y="0"
   width="25400"
   height="19050"
   id="rect6402" />

  </clipPath>
    <clipPath
       id="clipPath6408"
       clipPathUnits="userSpaceOnUse">
   <rect
   x="0"
   y="0"
   width="25400"
   height="19050"
   id="rect6406" />

  </clipPath>
    <clipPath
       id="clipPath6412"
       clipPathUnits="userSpaceOnUse">
   <rect
   x="0"
   y="0"
   width="25400"
   height="19050"
   id="rect6410" />

  </clipPath>
    <clipPath
       id="clipPath6416"
       clipPathUnits="userSpaceOnUse">
   <rect
   x="0"
   y="0"
   width="25400"
   height="19050"
   id="rect6414" />

  </clipPath>
    <clipPath
       id="clipPath6420"
       clipPathUnits="userSpaceOnUse">
   <rect
   x="0"
   y="0"
   width="25400"
   height="19050"
   id="rect6418" />

  </clipPath>
    <clipPath
       id="clipPath6424"
       clipPathUnits="userSpaceOnUse">
   <rect
   x="0"
   y="0"
   width="25400"
   height="19050"
   id="rect6422" />

  </clipPath>
    <clipPath
       id="clipPath6428"
       clipPathUnits="userSpaceOnUse">
   <rect
   x="0"
   y="0"
   width="25400"
   height="19050"
   id="rect6426" />

  </clipPath>
    <clipPath
       id="clipPath6432"
       clipPathUnits="userSpaceOnUse">
   <rect
   x="0"
   y="0"
   width="25400"
   height="19050"
   id="rect6430" />

  </clipPath>
    <clipPath
       id="clipPath6436"
       clipPathUnits="userSpaceOnUse">
   <rect
   x="0"
   y="0"
   width="25400"
   height="19050"
   id="rect6434" />

  </clipPath>
    <clipPath
       id="clipPath6440"
       clipPathUnits="userSpaceOnUse">
   <rect
   x="0"
   y="0"
   width="25400"
   height="19050"
   id="rect6438" />

  </clipPath>
    <clipPath
       id="clipPath6444"
       clipPathUnits="userSpaceOnUse">
   <rect
   x="0"
   y="0"
   width="25400"
   height="19050"
   id="rect6442" />

  </clipPath>
    <clipPath
       id="clipPath6448"
       clipPathUnits="userSpaceOnUse">
   <rect
   x="0"
   y="0"
   width="25400"
   height="19050"
   id="rect6446" />

  </clipPath>
    <clipPath
       id="clipPath6452"
       clipPathUnits="userSpaceOnUse">
   <rect
   x="0"
   y="0"
   width="25400"
   height="19050"
   id="rect6450" />

  </clipPath>
    <clipPath
       id="clipPath6456"
       clipPathUnits="userSpaceOnUse">
   <rect
   x="0"
   y="0"
   width="25400"
   height="19050"
   id="rect6454" />

  </clipPath>
    <clipPath
       id="clipPath6460"
       clipPathUnits="userSpaceOnUse">
   <rect
   x="0"
   y="0"
   width="25400"
   height="19050"
   id="rect6458" />

  </clipPath>
    <clipPath
       id="clipPath6464"
       clipPathUnits="userSpaceOnUse">
   <rect
   x="0"
   y="0"
   width="25400"
   height="19050"
   id="rect6462" />

  </clipPath>
    <clipPath
       id="clipPath6468"
       clipPathUnits="userSpaceOnUse">
   <rect
   x="0"
   y="0"
   width="25400"
   height="19050"
   id="rect6466" />

  </clipPath>
    <clipPath
       id="clipPath6472"
       clipPathUnits="userSpaceOnUse">
   <rect
   x="0"
   y="0"
   width="25400"
   height="19050"
   id="rect6470" />

  </clipPath>
    <clipPath
       id="clipPath6476"
       clipPathUnits="userSpaceOnUse">
   <rect
   x="0"
   y="0"
   width="25400"
   height="19050"
   id="rect6474" />

  </clipPath>
    <clipPath
       id="clipPath6480"
       clipPathUnits="userSpaceOnUse">
   <rect
   x="0"
   y="0"
   width="25400"
   height="19050"
   id="rect6478" />

  </clipPath>
    <clipPath
       id="clipPath6484"
       clipPathUnits="userSpaceOnUse">
   <rect
   x="0"
   y="0"
   width="25400"
   height="19050"
   id="rect6482" />

  </clipPath>
    <clipPath
       id="clipPath6488"
       clipPathUnits="userSpaceOnUse">
   <rect
   x="0"
   y="0"
   width="25400"
   height="19050"
   id="rect6486" />

  </clipPath>
    <clipPath
       id="clipPath6492"
       clipPathUnits="userSpaceOnUse">
   <rect
   x="0"
   y="0"
   width="25400"
   height="19050"
   id="rect6490" />

  </clipPath>
    <clipPath
       id="clipPath6496"
       clipPathUnits="userSpaceOnUse">
   <rect
   x="0"
   y="0"
   width="25400"
   height="19050"
   id="rect6494" />

  </clipPath>
    <clipPath
       id="clipPath6500"
       clipPathUnits="userSpaceOnUse">
   <rect
   x="0"
   y="0"
   width="25400"
   height="19050"
   id="rect6498" />

  </clipPath>
    <clipPath
       id="clipPath6504"
       clipPathUnits="userSpaceOnUse">
   <rect
   x="0"
   y="0"
   width="25400"
   height="19050"
   id="rect6502" />

  </clipPath>
    <clipPath
       id="clipPath6508"
       clipPathUnits="userSpaceOnUse">
   <rect
   x="0"
   y="0"
   width="25400"
   height="19050"
   id="rect6506" />

  </clipPath>
    <clipPath
       id="clipPath6512"
       clipPathUnits="userSpaceOnUse">
   <rect
   x="0"
   y="0"
   width="25400"
   height="19050"
   id="rect6510" />

  </clipPath>
    <clipPath
       id="clipPath6516"
       clipPathUnits="userSpaceOnUse">
   <rect
   x="0"
   y="0"
   width="25400"
   height="19050"
   id="rect6514" />

  </clipPath>
    <clipPath
       id="clipPath6520"
       clipPathUnits="userSpaceOnUse">
   <rect
   x="0"
   y="0"
   width="25400"
   height="19050"
   id="rect6518" />

  </clipPath>
    <clipPath
       id="clipPath6524"
       clipPathUnits="userSpaceOnUse">
   <rect
   x="0"
   y="0"
   width="25400"
   height="19050"
   id="rect6522" />

  </clipPath>
    <clipPath
       id="clipPath6528"
       clipPathUnits="userSpaceOnUse">
   <rect
   x="0"
   y="0"
   width="25400"
   height="19050"
   id="rect6526" />

  </clipPath>
    <clipPath
       id="clipPath6532"
       clipPathUnits="userSpaceOnUse">
   <rect
   x="0"
   y="0"
   width="25400"
   height="19050"
   id="rect6530" />

  </clipPath>
    <clipPath
       id="clipPath6536"
       clipPathUnits="userSpaceOnUse">
   <rect
   x="0"
   y="0"
   width="25400"
   height="19050"
   id="rect6534" />

  </clipPath>
    <clipPath
       id="clipPath6540"
       clipPathUnits="userSpaceOnUse">
   <rect
   x="0"
   y="0"
   width="25400"
   height="19050"
   id="rect6538" />

  </clipPath>
  </defs>
  <g
     inkscape:label="Layer 1"
     inkscape:groupmode="layer"
     id="layer1"
     transform="translate(-30.966,-98.34)">
    <path
       fill="#3c78d8"
       stroke="none"
       d="m 15805,4263 c 0,-157 128,-285 285,-285 h 7643 c 76,0 149,30 202,84 53,53 83,126 83,201 v 1141 c 0,158 -127,285 -285,285 h -7643 c -157,0 -285,-127 -285,-285 z"
       id="path769"
       clip-path="url(#presentation_clip_path)"
       transform="matrix(0.01,0,0,0.01,-126.944,85.32)"
       style="stroke:#595959;stroke-opacity:1;stroke-width:26.00000012;stroke-dasharray:none" />
    <path
       fill="#f3f3f3"
       stroke="none"
       d="m 18360,4708 c 5,6 8,13 10,20 3,8 4,16 4,25 0,12 -2,23 -7,34 -4,10 -11,19 -19,26 -9,8 -18,14 -30,18 -12,4 -24,6 -39,6 -10,0 -19,-1 -28,-3 -9,-3 -16,-5 -21,-9 -3,5 -6,9 -8,14 -2,3 -3,8 -3,13 0,6 3,11 9,15 6,4 14,6 23,6 l 64,3 c 12,0 23,2 33,4 11,3 19,7 27,12 7,5 13,12 17,19 4,8 6,16 6,26 0,11 -3,21 -7,31 -5,10 -12,18 -22,25 -9,8 -22,14 -37,18 -14,4 -32,7 -53,7 -19,0 -36,-2 -50,-5 -14,-3 -25,-8 -34,-13 -9,-6 -15,-12 -19,-20 -4,-7 -6,-16 -6,-25 0,-12 3,-22 8,-31 5,-9 14,-17 25,-25 -4,-2 -7,-5 -10,-8 -3,-3 -6,-6 -8,-9 -2,-4 -3,-7 -4,-11 -1,-4 -2,-8 -2,-12 0,-10 3,-19 7,-28 5,-9 11,-17 18,-25 -3,-4 -6,-7 -8,-10 -2,-4 -4,-8 -6,-12 -2,-4 -3,-9 -4,-13 -1,-5 -1,-11 -1,-17 0,-12 2,-23 6,-34 5,-10 12,-19 20,-27 8,-7 18,-13 30,-17 11,-4 24,-6 38,-6 7,0 12,0 17,1 6,1 11,2 15,3 h 88 v 34 z m -145,243 c 0,12 6,20 17,25 12,5 29,8 50,8 13,0 24,-1 33,-4 10,-2 17,-5 22,-9 6,-4 10,-9 12,-14 3,-5 4,-10 4,-15 0,-10 -4,-17 -12,-22 -8,-5 -20,-7 -37,-8 l -63,-2 c -5,3 -10,7 -13,10 -4,4 -7,7 -8,10 -2,4 -4,7 -5,11 0,3 0,7 0,10 z m 12,-198 c 0,8 2,15 4,22 3,6 6,12 11,16 5,4 10,8 16,10 7,3 14,4 21,4 9,0 16,-1 23,-4 6,-3 12,-7 16,-11 5,-5 8,-11 10,-17 3,-6 4,-13 4,-20 0,-7 -1,-14 -4,-21 -3,-6 -6,-12 -11,-16 -5,-5 -10,-8 -16,-11 -7,-2 -14,-3 -22,-3 -8,0 -15,1 -22,4 -6,3 -12,7 -16,11 -5,5 -8,11 -10,17 -2,6 -4,13 -4,19 z m 385,163 v -32 c -14,13 -27,22 -40,28 -14,6 -28,8 -43,8 -14,0 -26,-1 -36,-5 -10,-3 -18,-8 -24,-14 -6,-6 -11,-14 -14,-22 -3,-8 -4,-18 -4,-27 0,-24 9,-43 27,-57 18,-14 45,-21 80,-21 h 50 v -21 c 0,-14 -5,-26 -14,-34 -9,-9 -23,-14 -41,-14 -14,0 -28,2 -41,5 -13,3 -27,8 -41,13 v -38 c 5,-2 11,-4 17,-5 7,-2 14,-4 21,-5 7,-2 15,-3 23,-3 8,-2 16,-2 24,-2 14,0 28,2 39,5 12,3 22,8 30,14 8,7 14,15 18,26 5,9 7,21 7,35 v 166 z m -4,-110 h -53 c -11,0 -20,1 -27,4 -8,2 -14,4 -19,8 -5,4 -8,9 -11,14 -2,6 -3,12 -3,18 0,5 1,9 2,14 2,4 4,8 7,11 3,3 8,6 13,8 5,2 11,3 19,3 9,0 20,-3 33,-9 12,-6 25,-15 39,-28 z m 353,209 h -271 v -35 h 271 z m 121,-406 h -71 v -34 h 115 v 306 h 72 v 35 h -195 v -35 h 79 z m 382,241 c 0,9 -1,16 -5,23 -2,7 -6,13 -11,18 -5,5 -11,10 -17,14 -7,3 -14,6 -22,9 -7,2 -15,4 -23,5 -8,1 -15,1 -23,1 -16,0 -31,0 -45,-2 -14,-1 -27,-3 -40,-7 v -38 c 14,4 28,7 42,9 14,2 28,3 42,3 20,0 35,-2 44,-8 10,-5 15,-13 15,-24 0,-4 -1,-7 -3,-11 -1,-3 -4,-7 -8,-10 -4,-3 -10,-6 -19,-10 -8,-3 -20,-7 -34,-11 -11,-3 -21,-7 -31,-11 -9,-4 -17,-9 -24,-15 -6,-6 -11,-12 -15,-20 -4,-7 -6,-16 -6,-26 0,-7 1,-14 4,-22 3,-8 9,-16 16,-23 8,-7 18,-13 31,-17 13,-5 29,-7 48,-7 10,0 20,0 32,2 12,1 24,2 36,5 v 37 c -13,-3 -26,-5 -38,-6 -11,-2 -21,-3 -30,-3 -11,0 -20,1 -27,3 -7,1 -12,3 -17,6 -5,3 -8,6 -10,10 -2,4 -3,8 -3,12 0,4 1,8 3,12 2,3 5,7 9,10 5,3 11,7 19,10 9,3 19,7 33,11 14,4 26,8 36,13 10,4 18,9 24,15 6,6 10,12 13,19 3,7 4,15 4,24 z m 284,-13 c 0,14 -3,25 -8,36 -6,10 -13,19 -23,26 -10,7 -21,12 -35,16 -13,4 -27,5 -43,5 -17,0 -33,-1 -46,-5 -13,-4 -24,-9 -32,-16 -9,-7 -16,-15 -21,-25 -4,-9 -6,-20 -6,-31 0,-20 5,-36 16,-50 11,-14 27,-27 50,-38 -21,-11 -36,-22 -45,-35 -10,-13 -14,-27 -14,-44 0,-10 2,-20 6,-29 4,-10 10,-19 19,-26 8,-8 19,-14 31,-18 13,-5 28,-7 45,-7 17,0 31,2 43,6 12,3 23,8 31,14 8,6 14,14 19,25 4,9 6,19 6,30 0,18 -5,34 -15,47 -10,13 -25,24 -43,33 9,5 17,10 25,16 8,6 15,12 21,19 6,7 11,14 14,23 4,8 5,18 5,28 z m -50,-163 c 0,-14 -5,-24 -15,-31 -10,-8 -24,-11 -42,-11 -18,0 -32,3 -42,10 -10,7 -15,17 -15,31 0,7 1,12 3,18 3,5 7,10 12,15 5,4 11,9 18,14 8,4 17,8 27,13 19,-8 32,-17 41,-26 9,-10 13,-20 13,-33 z m 4,166 c 0,-6 -1,-11 -3,-17 -1,-6 -5,-11 -10,-17 -5,-5 -11,-11 -20,-16 -8,-5 -19,-11 -32,-17 -11,5 -20,11 -27,16 -8,5 -14,11 -18,16 -5,5 -8,11 -10,17 -2,5 -3,11 -3,18 0,7 2,13 5,19 3,6 7,10 13,14 5,4 12,7 19,9 8,2 16,3 25,3 8,0 16,-1 24,-3 7,-2 14,-4 20,-8 5,-3 9,-8 12,-14 4,-5 5,-12 5,-20 z m 301,67 c -11,5 -22,8 -34,10 -11,2 -23,3 -35,3 -38,0 -68,-11 -88,-31 -21,-21 -31,-51 -31,-91 0,-19 2,-37 8,-52 6,-16 15,-29 25,-40 11,-11 24,-20 39,-26 15,-6 32,-9 50,-9 12,0 24,1 35,3 11,1 21,4 31,8 v 40 c -10,-5 -21,-9 -32,-12 -11,-2 -22,-3 -34,-3 -10,0 -21,2 -30,6 -10,4 -18,10 -25,18 -7,7 -13,16 -17,28 -5,11 -7,23 -7,37 0,30 7,52 21,66 15,14 35,22 60,22 11,0 22,-2 33,-4 11,-3 21,-6 31,-12 z m 316,108 h -271 v -35 h 271 z m 194,-99 -1,-32 c -13,13 -26,22 -40,28 -13,6 -28,8 -43,8 -13,0 -25,-1 -35,-5 -10,-3 -18,-8 -24,-14 -7,-6 -11,-14 -14,-22 -3,-8 -4,-18 -4,-27 0,-24 9,-43 26,-57 19,-14 45,-21 81,-21 h 50 v -21 c 0,-14 -5,-26 -14,-34 -9,-9 -23,-14 -42,-14 -14,0 -27,2 -40,5 -13,3 -27,8 -41,13 v -38 c 5,-2 11,-4 17,-5 7,-2 14,-4 21,-5 7,-2 15,-3 23,-3 8,-2 16,-2 24,-2 14,0 27,2 39,5 12,3 22,8 30,14 8,7 14,15 18,26 5,9 7,21 7,35 v 166 z m -4,-110 h -54 c -10,0 -19,1 -27,4 -7,2 -13,4 -18,8 -5,4 -8,9 -11,14 -2,6 -3,12 -3,18 0,5 0,9 2,14 1,4 4,8 7,11 3,3 7,6 12,8 6,2 12,3 19,3 10,0 21,-3 33,-9 13,-6 26,-15 40,-28 z m 130,-132 h 39 l 1,45 c 14,-17 28,-30 42,-38 14,-7 28,-11 42,-11 25,0 44,8 57,24 13,17 19,41 18,73 h -42 c 0,-22 -3,-37 -10,-46 -6,-10 -16,-15 -29,-15 -6,0 -11,1 -17,3 -6,2 -12,5 -18,10 -6,4 -12,10 -19,17 -6,7 -14,15 -21,25 v 155 h -43 z m 250,127 c 0,-21 2,-39 8,-55 5,-16 13,-30 24,-41 10,-11 23,-19 37,-25 15,-6 31,-8 49,-8 8,0 15,0 23,1 7,1 14,2 21,4 v -102 h 43 v 341 h -38 l -1,-46 c -12,17 -25,30 -39,38 -13,8 -28,12 -44,12 -14,0 -26,-2 -36,-8 -11,-6 -20,-14 -27,-24 -7,-11 -12,-24 -15,-38 -4,-15 -5,-32 -5,-49 z m 42,-3 c 0,29 4,51 13,65 9,15 21,22 37,22 10,0 21,-5 33,-14 12,-10 24,-24 37,-43 v -112 c -6,-3 -14,-6 -22,-7 -9,-2 -17,-3 -25,-3 -23,0 -41,8 -54,23 -13,14 -19,37 -19,69 z m 474,217 h -272 v -35 h 272 z m 237,-194 c 0,14 -3,27 -9,39 -5,12 -14,22 -25,31 -11,10 -25,17 -42,22 -17,5 -37,7 -60,7 -13,0 -24,0 -34,-1 -10,0 -19,-1 -27,-3 v -37 c 9,1 20,3 31,4 11,1 22,1 34,1 16,0 29,-1 40,-4 11,-3 21,-7 28,-12 7,-5 12,-12 15,-19 3,-8 5,-16 5,-26 0,-9 -2,-16 -6,-22 -4,-7 -9,-12 -16,-17 -7,-4 -16,-7 -25,-10 -10,-2 -20,-3 -32,-3 h -36 v -34 h 36 c 10,0 18,-1 26,-4 8,-2 15,-6 20,-11 6,-4 10,-10 13,-17 3,-7 5,-15 5,-23 0,-17 -6,-29 -16,-37 -10,-8 -25,-11 -45,-11 -11,0 -22,1 -33,3 -11,2 -23,5 -36,9 v -38 c 5,-2 11,-3 17,-5 7,-1 13,-3 19,-4 6,-1 12,-1 18,-2 6,-1 12,-1 18,-1 17,0 31,2 44,6 13,3 23,8 32,15 8,7 15,16 19,26 4,9 6,20 6,32 0,18 -4,33 -14,45 -9,12 -21,22 -37,30 8,1 16,3 24,7 8,4 15,9 21,15 7,6 12,13 16,22 4,8 6,17 6,27 z"
       id="path788"
       clip-path="url(#presentation_clip_path)"
       transform="matrix(0.01,0,0,0.01,-126.944,85.32)" />
    <path
       fill="#eeeeee"
       stroke="none"
       d="m 15805,1316 h 1782 763 509 v 865 370 247 h -509 l 26,786 -789,-786 h -1782 v -247 -370 z"
       id="path795"
       clip-path="url(#presentation_clip_path)"
       transform="matrix(0.01,0,0,0.01,-126.944,85.32)"
       style="stroke:#595959;stroke-opacity:1;stroke-width:26.00000012;stroke-dasharray:none" />
    <path
       fill="#eeeeee"
       stroke="none"
       d="m 15805,6864 h 2233 l 1198,-753 -241,753 h 638 v 248 370 866 h -638 -957 -2233 v -866 -370 z"
       id="path822"
       clip-path="url(#presentation_clip_path)"
       transform="matrix(0.01,0,0,0.01,-126.944,85.32)"
       style="stroke:#595959;stroke-opacity:1;stroke-width:26.00000012;stroke-dasharray:none" />
    <text
       class="SVGTextShape"
       id="text842"
       clip-path="url(#presentation_clip_path)"
       transform="matrix(0.01,0,0,0.01,-126.944,85.32)"><tspan
         class="TextParagraph"
         font-family="Arial, sans-serif"
         font-size="423px"
         font-weight="400"
         id="tspan840"><tspan
           class="TextPosition"
           x="16132"
           y="2215"
           id="tspan838"><tspan
             fill="#000000"
             stroke="none"
             style="white-space:pre"
             id="tspan836">Organisation</tspan></tspan></tspan></text>
    <path
       fill="#eeeeee"
       stroke="none"
       d="m 20191,6867 h 638 l -60,-729 1017,729 h 2232 v 247 371 865 h -2232 -957 -638 v -865 -371 z"
       id="path849"
       clip-path="url(#presentation_clip_path)"
       transform="matrix(0.01,0,0,0.01,-126.944,85.32)"
       style="stroke:#595959;stroke-opacity:1;stroke-width:26.00000012;stroke-dasharray:none" />
    <text
       class="SVGTextShape"
       id="text869"
       clip-path="url(#presentation_clip_path)"
       transform="matrix(0.01,0,0,0.01,-126.944,85.32)"><tspan
         class="TextParagraph"
         font-family="Arial, sans-serif"
         font-size="423px"
         font-weight="400"
         id="tspan867"><tspan
           class="TextPosition"
           x="16931"
           y="7763"
           id="tspan865"><tspan
             fill="#000000"
             stroke="none"
             style="white-space:pre"
             id="tspan863">Platform</tspan></tspan></tspan></text>
    <text
       class="SVGTextShape"
       id="text882"
       clip-path="url(#presentation_clip_path)"
       transform="matrix(0.01,0,0,0.01,-126.944,85.32)"><tspan
         class="TextParagraph"
         font-family="Arial, sans-serif"
         font-size="423px"
         font-weight="400"
         id="tspan880"><tspan
           class="TextPosition"
           x="20469"
           y="7514"
           id="tspan878"><tspan
             fill="#000000"
             stroke="none"
             style="white-space:pre"
             id="tspan876">Product / Product </tspan></tspan></tspan></text>
    <path
       fill="#eeeeee"
       stroke="none"
       d="m 21511,1316 h 418 626 1463 v 865 370 247 h -1463 l -835,773 209,-773 h -418 v -247 -370 z"
       id="path889"
       clip-path="url(#presentation_clip_path)"
       transform="matrix(0.01,0,0,0.01,-126.944,85.32)"
       style="stroke:#595959;stroke-opacity:1;stroke-width:26.00000012;stroke-dasharray:none" />
    <text
       class="SVGTextShape"
       id="text909"
       clip-path="url(#presentation_clip_path)"
       transform="matrix(0.01,0,0,0.01,-126.944,85.32)"><tspan
         class="TextParagraph"
         font-family="Arial, sans-serif"
         font-size="423px"
         font-weight="400"
         id="tspan907"><tspan
           class="TextPosition"
           x="21658"
           y="8017"
           id="tspan905"><tspan
             fill="#000000"
             stroke="none"
             style="white-space:pre"
             id="tspan903">suite</tspan></tspan></tspan></text>
    <path
       fill="none"
       stroke="#595959"
       stroke-width="26"
       stroke-linejoin="round"
       d="m 18141,4432 v -293 h 220 v -292 292 h 304 v 86 207"
       id="path926"
       clip-path="url(#presentation_clip_path)"
       transform="matrix(0.01,0,0,0.01,-126.944,85.32)" />
    <path
       fill="none"
       stroke="#595959"
       stroke-width="26"
       stroke-linejoin="round"
       d="m 21340,4432 v -293 h 318 v -292 292 h 79 v 86 207"
       id="path943"
       clip-path="url(#presentation_clip_path)"
       transform="matrix(0.01,0,0,0.01,-126.944,85.32)" />
    <path
       fill="none"
       stroke="#595959"
       stroke-width="26"
       stroke-linejoin="round"
       d="m 19516,5205 v 298 h -254 v 299 -299 h -254 v -88 -210"
       id="path960"
       clip-path="url(#presentation_clip_path)"
       transform="matrix(0.01,0,0,0.01,-126.944,85.32)" />
    <path
       fill="none"
       stroke="#595959"
       stroke-width="26"
       stroke-linejoin="round"
       d="m 21088,5205 v 298 h -340 v 299 -299 h -341 v -88 -210"
       id="path977"
       clip-path="url(#presentation_clip_path)"
       transform="matrix(0.01,0,0,0.01,-126.944,85.32)" />
    <path
       fill="#eeeeee"
       stroke="none"
       d="m 19219,1316 h 322 483 1127 v 865 370 247 h -1127 l -274,801 -209,-801 h -322 v -247 -370 z"
       id="path984"
       clip-path="url(#presentation_clip_path)"
       transform="matrix(0.01,0,0,0.01,-126.944,85.32)"
       style="stroke:#595959;stroke-opacity:1;stroke-width:26.00000012;stroke-dasharray:none" />
    <text
       class="SVGTextShape"
       id="text1004"
       clip-path="url(#presentation_clip_path)"
       transform="matrix(0.01,0,0,0.01,-126.944,85.32)"><tspan
         class="TextParagraph"
         font-family="Arial, sans-serif"
         font-size="423px"
         font-weight="400"
         id="tspan1002"><tspan
           class="TextPosition"
           x="21835"
           y="2215"
           id="tspan1000"><tspan
             fill="#000000"
             stroke="none"
             style="white-space:pre"
             id="tspan998">Collection</tspan></tspan></tspan></text>
    <path
       fill="none"
       stroke="#595959"
       stroke-width="26"
       stroke-linejoin="round"
       d="m 19499,4432 v -293 h 221 v -292 292 h 304 v 86 207"
       id="path1021"
       clip-path="url(#presentation_clip_path)"
       transform="matrix(0.01,0,0,0.01,-126.944,85.32)" />
    <text
       class="SVGTextShape"
       id="text1086"
       clip-path="url(#presentation_clip_path)"
       transform="matrix(0.01,0,0,0.01,-126.944,85.32)"><tspan
         class="TextParagraph"
         font-family="Arial, sans-serif"
         font-size="423px"
         font-weight="400"
         id="tspan1084"><tspan
           class="TextPosition"
           x="19514"
           y="2215"
           id="tspan1082"><tspan
             fill="#000000"
             stroke="none"
             style="white-space:pre"
             id="tspan1080">Sensor</tspan></tspan></tspan></text>
  </g>
</svg>
