<?xml version="1.0" encoding="UTF-8" standalone="no"?>
<svg
   version="1.2"
   width="166.17221mm"
   height="68.384735mm"
   viewBox="0 0 16617.221 6838.4735"
   preserveAspectRatio="xMidYMid"
   fill-rule="evenodd"
   stroke-width="28.222"
   stroke-linejoin="round"
   xml:space="preserve"
   id="svg779"
   sodipodi:docname="Slide 1.5 ARD S-2 Filename.svg"
   inkscape:version="1.2 (dc2aeda, 2022-05-15)"
   xmlns:inkscape="http://www.inkscape.org/namespaces/inkscape"
   xmlns:sodipodi="http://sodipodi.sourceforge.net/DTD/sodipodi-0.dtd"
   xmlns="http://www.w3.org/2000/svg"
   xmlns:svg="http://www.w3.org/2000/svg"><sodipodi:namedview
   id="namedview781"
   pagecolor="#ffffff"
   bordercolor="#666666"
   borderopacity="1.0"
   inkscape:pageshadow="2"
   inkscape:pageopacity="0.0"
   inkscape:pagecheckerboard="0"
   inkscape:document-units="mm"
   showgrid="false"
   inkscape:zoom="1.4056814"
   inkscape:cx="194.56756"
   inkscape:cy="271.75432"
   inkscape:window-width="2560"
   inkscape:window-height="1371"
   inkscape:window-x="2621"
   inkscape:window-y="32"
   inkscape:window-maximized="1"
   inkscape:current-layer="svg779"
   inkscape:showpageshadow="2"
   inkscape:deskcolor="#d1d1d1" />
 <defs
   class="ClipPathGroup"
   id="defs8" />
 <defs
   id="defs85" />
 <defs
   id="defs146" />
 <defs
   class="TextShapeIndex"
   id="defs150" />
 <defs
   class="EmbeddedBulletChars"
   id="defs182" />
 
 <rect
   class="BoundingBox"
   stroke="none"
   fill="none"
   x="14.111"
   y="2550.363"
   width="16430"
   height="1708"
   id="rect194" /><path
   fill="#3c78d8"
   stroke="none"
   d="m 14.111,2834.3631 c 0,-157 137,-284 307,-284 h 15814 c 82,0 160,30 218,83 58,53 90,126 90,201 v 1139 c 0,157 -137,284 -308,284 h -15814 c -170,0 -307,-127 -307,-284 z"
   id="path196"
   style="stroke:#595959;stroke-opacity:1" /><rect
   class="BoundingBox"
   stroke="none"
   fill="none"
   x="1.1110002"
   y="2537.363"
   width="16456"
   height="1734"
   id="rect201" /><path
   fill="none"
   stroke="#595959"
   stroke-width="26"
   stroke-linejoin="round"
   d="m 447.111,3017.3631 v -293 h 226 v -292 292 h 312 v 86 207"
   id="path225" /><g
   aria-label="ga_s2am_nbart_3-2-1_54KXA_2018-10-19_final_band06.tif"
   id="text252"
   style="letter-spacing:26.4583px"
   class="SVGTextShape"
   transform="translate(-5306.889,-2120.6369)"><path
     d="m 5936.9893,5475.0762 q 6.7539,8.4424 10.372,19.7793 3.8594,11.0957 3.8594,24.1211 0,18.8144 -6.9951,34.4931 -6.7539,15.4375 -19.2969,26.5332 -12.543,11.0957 -30.1514,17.3672 -17.3671,6.0303 -38.3525,6.0303 -15.1963,0 -28.4629,-3.1358 -13.2666,-3.3769 -20.9853,-8.2011 -4.583,6.7539 -7.7188,12.7842 -3.1357,6.0302 -3.1357,13.5078 0,9.166 8.6836,15.1963 8.9248,6.0302 23.3974,6.5127 l 63.6797,2.4121 q 18.0908,0.4824 33.2871,4.583 15.4375,4.1006 26.292,11.8193 11.0957,7.7188 17.126,19.0557 6.2715,11.3369 6.2715,26.292 0,16.1611 -6.9951,30.6338 -6.9952,14.4726 -21.709,25.3271 -14.4727,11.0957 -36.9053,17.6084 -22.4326,6.5127 -53.3076,6.5127 -29.4278,0 -50.1719,-4.8242 -20.5029,-4.583 -33.7695,-13.0254 -13.2666,-8.2012 -19.2969,-19.7793 -6.0303,-11.3369 -6.0303,-25.086 0,-17.6083 8.2012,-30.875 8.2012,-13.2666 25.3271,-25.5683 -6.2714,-2.8945 -10.8544,-7.2363 -4.5831,-4.3418 -7.4776,-9.4073 -2.8945,-5.3066 -4.3418,-11.0957 -1.4472,-5.789 -1.4472,-11.3369 0,-15.6787 7.2363,-28.7041 7.4775,-13.0254 17.6084,-24.6035 -4.583,-5.5479 -8.2012,-10.8545 -3.3769,-5.3066 -6.0303,-11.3369 -2.4121,-6.2715 -3.8593,-13.2666 -1.2061,-7.2363 -1.2061,-16.4024 0,-18.8144 6.7539,-34.2519 6.9951,-15.6787 19.2969,-26.7744 12.543,-11.0957 29.9101,-17.126 17.6084,-6.2715 38.835,-6.2715 8.9248,0 17.126,1.2061 8.2012,1.206 14.4726,3.1357 h 87.8008 v 34.252 z m -145.6914,242.8994 q 0,17.126 17.8496,24.8447 17.8496,7.96 49.6894,7.96 20.0205,0 33.5283,-3.6182 13.7491,-3.6182 21.9502,-9.6484 8.4424,-5.7891 12.0606,-13.5078 3.6181,-7.4776 3.6181,-15.4375 0,-14.7139 -12.0605,-21.709 -12.0606,-6.9951 -36.9053,-8.2012 l -63.1972,-2.1709 q -7.96,5.3066 -13.2666,10.3721 -5.0655,5.0654 -7.96,10.1308 -2.8945,5.3067 -4.1006,10.3721 -1.206,5.3066 -1.206,10.6133 z m 12.7841,-198.0342 q 0,11.5781 3.8594,21.2266 3.8594,9.6484 10.8545,16.4023 6.9951,6.7539 16.4023,10.6133 9.6485,3.6182 21.2266,3.6182 12.543,0 22.1914,-4.1006 9.8897,-4.3418 16.4024,-11.5782 6.7539,-7.2363 10.1308,-16.6435 3.6182,-9.4072 3.6182,-19.5381 0,-11.5781 -3.8594,-21.2266 -3.8594,-9.6484 -10.8545,-16.4023 -6.9951,-6.7539 -16.6435,-10.3721 -9.4073,-3.8593 -20.9854,-3.8593 -12.543,0 -22.4326,4.3418 -9.6485,4.3417 -16.4024,11.5781 -6.5127,6.9951 -10.1308,16.4023 -3.377,9.4072 -3.377,19.5381 z"
     style="font-size:494px;font-family:'YaHei Consolas Hybrid';-inkscape-font-specification:'YaHei Consolas Hybrid, Normal';white-space:pre;fill:#f0f0f0"
     id="path10931" /><path
     d="m 6216.2366,5683 -0.9648,-32.5635 q -19.7793,19.5381 -40.2822,28.2217 -20.2618,8.6836 -42.6944,8.6836 -20.7441,0 -35.458,-5.3066 -14.7138,-5.3067 -24.3623,-14.4727 -9.4072,-9.4072 -13.9902,-21.9502 -4.3418,-12.543 -4.3418,-27.2568 0,-36.4229 27.0156,-56.9258 27.2568,-20.7442 80.3233,-20.7442 h 50.1718 v -21.2265 q 0,-21.4678 -13.749,-34.252 -13.749,-13.0254 -41.9707,-13.0254 -20.5029,0 -40.5234,4.583 -19.7793,4.5831 -41.0059,13.0254 v -37.8701 q 7.96,-2.8945 17.6084,-5.5478 9.8896,-2.8946 20.7441,-5.0655 10.8545,-2.1709 22.6739,-3.3769 11.8193,-1.4473 23.8799,-1.4473 21.9501,0 39.5585,4.8242 17.6084,4.8243 29.669,14.7139 12.3017,9.8897 18.8144,24.8447 6.5127,14.9551 6.5127,35.2168 V 5683 Z m -4.583,-110.2334 h -53.3076 q -15.6787,0 -27.0156,3.1357 -11.3369,3.1358 -18.5733,8.9248 -7.2363,5.7891 -10.8545,13.9903 -3.3769,7.9599 -3.3769,18.0908 0,6.9951 2.1709,13.5078 2.1709,6.2715 6.9951,11.3369 4.8242,4.8242 12.543,7.7188 7.7187,2.8945 18.8144,2.8945 14.4727,0 33.0459,-8.6836 18.8145,-8.9248 39.5586,-27.9805 z"
     style="font-size:494px;font-family:'YaHei Consolas Hybrid';-inkscape-font-specification:'YaHei Consolas Hybrid, Normal';white-space:pre;fill:#f0f0f0"
     id="path10933" /><path
     d="m 6591.7272,5781.8965 h -271.6035 v -34.7344 h 271.6035 z"
     style="font-size:494px;font-family:'YaHei Consolas Hybrid';-inkscape-font-specification:'YaHei Consolas Hybrid, Normal';white-space:pre;fill:#f0f0f0"
     id="path10935" /><path
     d="m 6848.5419,5616.9082 q 0,12.7842 -4.3418,22.915 -4.3418,10.1309 -11.8194,18.0909 -7.4775,7.7187 -17.3672,13.2666 -9.8896,5.5478 -21.2265,9.166 -11.0957,3.6181 -22.9151,5.3066 -11.8193,1.6885 -23.1562,1.6885 -24.6035,0 -45.3477,-2.1709 -20.5029,-2.1709 -40.2822,-6.9951 v -38.5938 q 21.2266,6.0303 42.2119,9.166 20.9854,3.1358 41.7295,3.1358 30.1514,0 44.624,-8.2012 14.4727,-8.2012 14.4727,-23.3974 0,-6.5127 -2.4121,-11.5782 -2.1709,-5.3066 -8.2012,-9.8896 -6.0303,-4.8242 -18.8144,-9.8897 -12.543,-5.0654 -34.4932,-11.5781 -16.4023,-4.8242 -30.3926,-10.8545 -13.749,-6.2715 -23.8799,-14.7139 -10.1308,-8.4423 -15.9199,-19.7792 -5.789,-11.337 -5.789,-26.7745 0,-10.1308 4.583,-22.1914 4.8242,-12.0605 16.1611,-22.4326 11.3369,-10.3721 30.6338,-17.126 19.2969,-6.9951 48.2422,-6.9951 14.2314,0 31.5986,1.6885 17.3672,1.4473 36.1816,5.3066 v 37.3877 q -19.7792,-4.8242 -37.6289,-6.9951 -17.6084,-2.4121 -30.6337,-2.4121 -15.6788,0 -26.5333,2.4121 -10.6132,2.4121 -17.3671,6.7539 -6.5127,4.1006 -9.4073,9.8897 -2.8945,5.5478 -2.8945,12.0605 0,6.5127 2.4121,11.8194 2.6533,5.3066 9.4072,10.372 6.9952,4.8242 19.2969,9.8897 12.3018,4.8242 32.0811,10.6133 21.4677,6.2714 36.1816,13.2666 14.7139,6.7539 23.8799,15.1962 9.166,8.4424 13.0254,19.0557 4.1006,10.6133 4.1006,24.1211 z"
     style="font-size:494px;font-family:'YaHei Consolas Hybrid';-inkscape-font-specification:'YaHei Consolas Hybrid, Normal';white-space:pre;fill:#f0f0f0"
     id="path10937" /><path
     d="m 7159.3879,5683 h -207.6826 v -37.6289 l 81.5293,-81.0469 q 20.0205,-19.7793 32.5635,-34.2519 12.543,-14.4727 19.5381,-26.292 6.9951,-12.0606 9.4072,-22.6739 2.4121,-10.6132 2.4121,-22.915 0,-11.5781 -3.1357,-21.9502 -3.1358,-10.6133 -9.6485,-18.5732 -6.5127,-7.96 -16.8847,-12.543 -10.3721,-4.583 -24.8448,-4.583 -20.0205,0 -36.4228,8.9248 -16.4023,8.9248 -30.1514,23.1562 l -23.1562,-27.7392 q 17.8496,-18.8145 41.0058,-30.1514 23.3975,-11.3369 54.2725,-11.3369 20.9853,0 38.1113,6.2715 17.3672,6.2715 29.9102,18.0908 12.543,11.8193 19.2969,28.9453 6.9951,17.126 6.9951,38.5938 0,18.0908 -4.8242,33.5283 -4.8243,15.4375 -14.7139,30.875 -9.6484,15.1963 -24.6035,31.5986 -14.7139,16.4024 -34.9756,35.9405 l -57.167,55.7197 h 153.1689 z"
     style="font-size:494px;font-family:'YaHei Consolas Hybrid';-inkscape-font-specification:'YaHei Consolas Hybrid, Normal';white-space:pre;fill:#f0f0f0"
     id="path10939" /><path
     d="m 7408.4839,5683 -0.9649,-32.5635 q -19.7793,19.5381 -40.2822,28.2217 -20.2617,8.6836 -42.6943,8.6836 -20.7442,0 -35.458,-5.3066 -14.7139,-5.3067 -24.3623,-14.4727 -9.4073,-9.4072 -13.9903,-21.9502 -4.3418,-12.543 -4.3418,-27.2568 0,-36.4229 27.0157,-56.9258 27.2568,-20.7442 80.3232,-20.7442 h 50.1719 v -21.2265 q 0,-21.4678 -13.749,-34.252 -13.7491,-13.0254 -41.9707,-13.0254 -20.503,0 -40.5235,4.583 -19.7793,4.5831 -41.0058,13.0254 v -37.8701 q 7.9599,-2.8945 17.6084,-5.5478 9.8896,-2.8946 20.7441,-5.0655 10.8545,-2.1709 22.6738,-3.3769 11.8194,-1.4473 23.8799,-1.4473 21.9502,0 39.5586,4.8242 17.6084,4.8243 29.6689,14.7139 12.3018,9.8897 18.8145,24.8447 6.5127,14.9551 6.5127,35.2168 V 5683 Z m -4.583,-110.2334 h -53.3076 q -15.6787,0 -27.0157,3.1357 -11.3369,3.1358 -18.5732,8.9248 -7.2363,5.7891 -10.8545,13.9903 -3.377,7.9599 -3.377,18.0908 0,6.9951 2.1709,13.5078 2.1709,6.2715 6.9952,11.3369 4.8242,4.8242 12.5429,7.7188 7.7188,2.8945 18.8145,2.8945 14.4726,0 33.0459,-8.6836 18.8144,-8.9248 39.5586,-27.9805 z"
     style="font-size:494px;font-family:'YaHei Consolas Hybrid';-inkscape-font-specification:'YaHei Consolas Hybrid, Normal';white-space:pre;fill:#f0f0f0"
     id="path10941" /><path
     d="m 7723.6716,5683 v -173.9131 q 0,-11.3369 -0.9648,-18.5732 -0.7236,-7.2364 -2.6533,-11.3369 -1.6885,-4.3418 -4.583,-6.0303 -2.6534,-1.6885 -6.7539,-1.6885 -4.8243,0 -8.9249,2.8945 -4.1005,2.8946 -8.9248,9.4073 -4.583,6.5127 -10.372,17.3672 -5.5479,10.6132 -13.2666,26.2919 V 5683 h -38.3526 v -169.3301 q 0,-13.2666 -0.9648,-21.4678 -0.7236,-8.2011 -2.6533,-12.7841 -1.6885,-4.583 -4.583,-6.2715 -2.8946,-1.6885 -6.9952,-1.6885 -4.3418,0 -8.2011,2.4121 -3.8594,2.4121 -8.6836,8.6836 -4.583,6.2715 -10.3721,17.126 -5.7891,10.8545 -13.749,27.7392 V 5683 h -38.5938 v -242.1758 h 32.0811 l 1.9297,46.0713 q 6.2715,-13.749 12.0605,-23.3975 6.0303,-9.6484 12.3018,-15.4375 6.2715,-6.0302 13.2666,-8.6835 7.2363,-2.8946 15.9199,-2.8946 19.5381,0 29.6689,12.7842 10.1309,12.7842 10.1309,39.5586 5.7891,-12.543 11.3369,-22.1914 5.5479,-9.8897 11.8194,-16.4024 6.5127,-6.7539 14.2314,-10.1308 7.7188,-3.6182 17.8496,-3.6182 45.5889,0 45.5889,70.1924 V 5683 Z"
     style="font-size:494px;font-family:'YaHei Consolas Hybrid';-inkscape-font-specification:'YaHei Consolas Hybrid, Normal';white-space:pre;fill:#f0f0f0"
     id="path10943" /><path
     d="m 8082.0361,5781.8965 h -271.6035 v -34.7344 h 271.6035 z"
     style="font-size:494px;font-family:'YaHei Consolas Hybrid';-inkscape-font-specification:'YaHei Consolas Hybrid, Normal';white-space:pre;fill:#f0f0f0"
     id="path10945" /><path
     d="m 8147.0884,5440.8242 h 37.3877 l 1.6885,39.0762 q 10.6132,-12.543 20.5029,-20.7442 9.8896,-8.4423 19.2969,-13.5078 9.6484,-5.0654 19.538,-6.9951 9.8897,-2.1709 20.503,-2.1709 37.3877,0 56.4433,22.1914 19.2969,21.9502 19.2969,66.333 V 5683 h -41.9707 v -154.6162 q 0,-28.4629 -10.6133,-41.9707 -10.6133,-13.749 -31.5986,-13.749 -7.7188,0 -15.1963,2.4121 -7.2363,2.1709 -15.1963,7.9599 -7.96,5.5479 -17.3672,15.1963 -9.166,9.6485 -20.7441,24.1211 V 5683 h -41.9707 z"
     style="font-size:494px;font-family:'YaHei Consolas Hybrid';-inkscape-font-specification:'YaHei Consolas Hybrid, Normal';white-space:pre;fill:#f0f0f0"
     id="path10947" /><path
     d="m 8652.1091,5557.5703 q 0,30.1514 -8.4424,54.0313 -8.2011,23.6386 -23.6386,40.2822 -15.1963,16.4023 -37.1465,25.3271 -21.9502,8.6836 -49.4483,8.6836 -21.4677,0 -43.9003,-4.1006 -22.4327,-4.1005 -44.3829,-13.0253 v -326.5997 h 41.9707 V 5436 l -1.9296,44.8652 q 18.0908,-24.3623 38.5937,-34.2519 20.7442,-10.1309 44.3828,-10.1309 20.7442,0 36.4229,8.6836 15.6787,8.6836 26.292,24.6035 10.6132,15.6787 15.9199,38.1114 5.3066,22.1914 5.3066,49.6894 z m -42.9355,1.9297 q 0,-19.0557 -2.8945,-34.9756 -2.6534,-15.9199 -8.6836,-27.2568 -6.0303,-11.3369 -15.4375,-17.6084 -9.4073,-6.5127 -22.4327,-6.5127 -7.9599,0 -16.1611,2.6533 -8.2012,2.4121 -17.126,8.4424 -8.6836,5.789 -18.5732,15.6787 -9.6484,9.6484 -20.7442,24.1211 v 117.4697 q 12.3018,4.8242 25.086,7.7188 12.7842,2.6533 24.3623,2.6533 14.4726,0 27.498,-4.583 13.2666,-4.583 23.1563,-15.1963 10.1308,-10.8545 15.9199,-28.4629 6.0303,-17.8496 6.0303,-44.1416 z"
     style="font-size:494px;font-family:'YaHei Consolas Hybrid';-inkscape-font-specification:'YaHei Consolas Hybrid, Normal';white-space:pre;fill:#f0f0f0"
     id="path10949" /><path
     d="m 8891.7979,5683 -0.9649,-32.5635 q -19.7793,19.5381 -40.2822,28.2217 -20.2617,8.6836 -42.6944,8.6836 -20.7441,0 -35.458,-5.3066 -14.7138,-5.3067 -24.3623,-14.4727 -9.4072,-9.4072 -13.9902,-21.9502 -4.3418,-12.543 -4.3418,-27.2568 0,-36.4229 27.0156,-56.9258 27.2569,-20.7442 80.3233,-20.7442 h 50.1718 v -21.2265 q 0,-21.4678 -13.749,-34.252 -13.749,-13.0254 -41.9707,-13.0254 -20.5029,0 -40.5234,4.583 -19.7793,4.5831 -41.0059,13.0254 v -37.8701 q 7.96,-2.8945 17.6084,-5.5478 9.8897,-2.8946 20.7442,-5.0655 10.8545,-2.1709 22.6738,-3.3769 11.8193,-1.4473 23.8799,-1.4473 21.9502,0 39.5586,4.8242 17.6084,4.8243 29.6689,14.7139 12.3018,9.8897 18.8145,24.8447 6.5127,14.9551 6.5127,35.2168 V 5683 Z m -4.5831,-110.2334 h -53.3076 q -15.6787,0 -27.0156,3.1357 -11.3369,3.1358 -18.5732,8.9248 -7.2364,5.7891 -10.8545,13.9903 -3.377,7.9599 -3.377,18.0908 0,6.9951 2.1709,13.5078 2.1709,6.2715 6.9951,11.3369 4.8242,4.8242 12.543,7.7188 7.7187,2.8945 18.8145,2.8945 14.4726,0 33.0459,-8.6836 18.8144,-8.9248 39.5585,-27.9805 z"
     style="font-size:494px;font-family:'YaHei Consolas Hybrid';-inkscape-font-specification:'YaHei Consolas Hybrid, Normal';white-space:pre;fill:#f0f0f0"
     id="path10951" /><path
     d="m 9044.1682,5440.8242 h 38.3526 l 1.206,44.624 q 21.4678,-25.8095 42.2119,-37.3877 20.9854,-11.5781 42.2119,-11.5781 37.6289,0 56.9258,24.3623 19.5381,24.3623 18.0908,72.3633 h -42.4531 q 0.7236,-31.8398 -9.4072,-46.0713 -9.8897,-14.4726 -29.1865,-14.4726 -8.4424,0 -17.126,3.1357 -8.4424,2.8945 -17.6084,9.6484 -8.9248,6.5127 -19.0557,16.8848 -10.1308,10.3721 -21.709,25.0859 V 5683 h -42.4531 z"
     style="font-size:494px;font-family:'YaHei Consolas Hybrid';-inkscape-font-specification:'YaHei Consolas Hybrid, Normal';white-space:pre;fill:#f0f0f0"
     id="path10953" /><path
     d="m 9542.9175,5679.623 q -14.2315,3.6182 -29.4278,5.0655 -15.1962,1.6885 -30.875,1.6885 -45.5888,0 -68.0214,-20.503 -22.4327,-20.7441 -22.4327,-63.4385 V 5476.041 h -67.7802 v -35.2168 h 67.7802 V 5374.25 l 41.9707,-10.8545 v 77.4287 h 108.7862 v 35.2168 h -108.7862 v 123.0176 q 0,26.0508 13.7491,39.0762 13.9902,12.7841 41.0058,12.7841 11.5782,0 25.3272,-1.6884 13.749,-1.9297 28.7041,-5.7891 z"
     style="font-size:494px;font-family:'YaHei Consolas Hybrid';-inkscape-font-specification:'YaHei Consolas Hybrid, Normal';white-space:pre;fill:#f0f0f0"
     id="path10955" /><path
     d="m 9878.8496,5781.8965 h -271.6035 v -34.7344 h 271.6035 z"
     style="font-size:494px;font-family:'YaHei Consolas Hybrid';-inkscape-font-specification:'YaHei Consolas Hybrid, Normal';white-space:pre;fill:#f0f0f0"
     id="path10957" /><path
     d="m 10142.418,5587.2393 q 0,20.7441 -8.442,39.0761 -8.443,18.0908 -25.328,31.8399 -16.884,13.5078 -42.453,21.4677 -25.568,7.7188 -59.579,7.7188 -18.8142,0 -33.7693,-1.2061 -14.9551,-1.206 -27.9805,-3.1357 v -37.6289 q 14.9551,2.6533 31.5986,4.1006 16.6436,1.4472 34.0112,1.4472 23.638,0 40.282,-4.1005 16.885,-4.3418 27.498,-12.3018 10.613,-7.96 15.437,-19.2969 4.825,-11.3369 4.825,-25.5683 0,-13.0254 -5.789,-22.6739 -5.79,-9.6484 -16.403,-16.1611 -10.372,-6.5127 -25.086,-9.6484 -14.472,-3.377 -31.84,-3.377 h -35.94 v -34.4931 h 36.423 q 14.231,0 25.809,-3.6182 11.82,-3.8594 20.021,-10.8545 8.442,-6.9951 12.784,-17.126 4.583,-10.3721 4.583,-23.3974 0,-25.3272 -15.437,-36.9053 -15.438,-11.5781 -45.348,-11.5781 -15.92,0 -32.8048,3.1357 -16.8847,3.1357 -36.1816,9.4072 v -36.664 q 8.2012,-2.8946 17.3672,-5.0655 9.4072,-2.4121 18.5732,-3.8593 9.4073,-1.6885 18.573,-2.4121 9.166,-0.9649 17.609,-0.9649 25.086,0 44.141,5.5479 19.056,5.3066 31.84,15.4375 12.784,10.1308 19.297,24.6035 6.513,14.4726 6.513,32.5635 0,27.0156 -13.991,45.3476 -13.749,18.332 -37.87,29.1865 12.302,1.9297 24.121,7.7188 12.061,5.789 21.468,14.9551 9.649,8.9248 15.438,21.2265 6.03,12.3018 6.03,27.2569 z"
     style="font-size:494px;font-family:'YaHei Consolas Hybrid';-inkscape-font-specification:'YaHei Consolas Hybrid, Normal';white-space:pre;fill:#f0f0f0"
     id="path10959" /><path
     d="m 10411.293,5571.3193 h -144.244 v -39.5586 h 144.244 z"
     style="font-size:494px;font-family:'YaHei Consolas Hybrid';-inkscape-font-specification:'YaHei Consolas Hybrid, Normal';white-space:pre;fill:#f0f0f0"
     id="path10961" /><path
     d="m 10744.572,5683 h -207.682 v -37.6289 l 81.529,-81.0469 q 20.02,-19.7793 32.563,-34.2519 12.543,-14.4727 19.539,-26.292 6.995,-12.0606 9.407,-22.6739 2.412,-10.6132 2.412,-22.915 0,-11.5781 -3.136,-21.9502 -3.136,-10.6133 -9.648,-18.5732 -6.513,-7.96 -16.885,-12.543 -10.372,-4.583 -24.845,-4.583 -20.02,0 -36.423,8.9248 -16.402,8.9248 -30.151,23.1562 l -23.156,-27.7392 q 17.849,-18.8145 41.006,-30.1514 23.397,-11.3369 54.272,-11.3369 20.985,0 38.111,6.2715 17.368,6.2715 29.911,18.0908 12.542,11.8193 19.296,28.9453 6.996,17.126 6.996,38.5938 0,18.0908 -4.825,33.5283 -4.824,15.4375 -14.714,30.875 -9.648,15.1963 -24.603,31.5986 -14.714,16.4024 -34.976,35.9405 l -57.167,55.7197 h 153.169 z"
     style="font-size:494px;font-family:'YaHei Consolas Hybrid';-inkscape-font-specification:'YaHei Consolas Hybrid, Normal';white-space:pre;fill:#f0f0f0"
     id="path10963" /><path
     d="m 11007.417,5571.3193 h -144.244 v -39.5586 h 144.244 z"
     style="font-size:494px;font-family:'YaHei Consolas Hybrid';-inkscape-font-specification:'YaHei Consolas Hybrid, Normal';white-space:pre;fill:#f0f0f0"
     id="path10965" /><path
     d="m 11338.042,5683 h -198.034 v -39.0762 h 81.047 v -230.1152 l -75.499,41.0059 -15.437,-35.6993 100.343,-52.8252 h 37.147 v 277.6338 h 70.433 z"
     style="font-size:494px;font-family:'YaHei Consolas Hybrid';-inkscape-font-specification:'YaHei Consolas Hybrid, Normal';white-space:pre;fill:#f0f0f0"
     id="path10967" /><path
     d="m 11667.22,5781.8965 h -271.603 v -34.7344 h 271.603 z"
     style="font-size:494px;font-family:'YaHei Consolas Hybrid';-inkscape-font-specification:'YaHei Consolas Hybrid, Normal';white-space:pre;fill:#f0f0f0"
     id="path10969" /><path
     d="m 11928.859,5582.1738 q 0,23.3975 -10.13,42.6944 -10.131,19.2968 -27.981,33.2871 -17.608,13.749 -41.729,21.4677 -24.122,7.7188 -52.102,7.7188 -6.995,0 -15.196,-0.4824 -7.96,-0.2412 -15.92,-0.9649 -7.96,-0.4824 -15.679,-1.206 -7.477,-0.7237 -13.508,-1.6885 v -38.1113 q 13.026,3.1357 29.669,4.583 16.885,1.4472 34.011,1.4472 19.297,0 34.734,-4.583 15.438,-4.583 26.292,-13.0254 10.855,-8.6835 16.644,-20.7441 5.789,-12.3018 5.789,-27.498 0,-29.4278 -21.227,-42.6944 -20.985,-13.5078 -60.544,-13.5078 h -59.82 v -161.1289 h 169.813 v 36.6641 h -130.254 v 88.5244 h 27.498 q 22.674,0 44.141,4.1006 21.468,4.1006 38.112,14.4726 16.884,10.1309 27.015,27.4981 10.372,17.1259 10.372,43.1767 z"
     style="font-size:494px;font-family:'YaHei Consolas Hybrid';-inkscape-font-specification:'YaHei Consolas Hybrid, Normal';white-space:pre;fill:#f0f0f0"
     id="path10971" /><path
     d="m 12250.56,5613.29 h -53.79 V 5683 h -42.936 v -69.71 h -151.721 v -36.9052 l 134.354,-208.6475 h 60.303 v 208.6475 h 53.79 z m -96.726,-205.0293 -109.751,168.1241 h 109.751 z"
     style="font-size:494px;font-family:'YaHei Consolas Hybrid';-inkscape-font-specification:'YaHei Consolas Hybrid, Normal';white-space:pre;fill:#f0f0f0"
     id="path10973" /><path
     d="m 12542.35,5683 h -54.031 l -117.952,-154.6162 V 5683 h -42.936 v -315.2627 h 42.936 v 146.415 l 115.54,-146.415 h 50.895 l -124.465,149.792 z"
     style="font-size:494px;font-family:'YaHei Consolas Hybrid';-inkscape-font-specification:'YaHei Consolas Hybrid, Normal';white-space:pre;fill:#f0f0f0"
     id="path10975" /><path
     d="m 12863.327,5683 h -54.272 L 12732.35,5555.6406 12655.403,5683 h -53.549 l 104.927,-161.1289 -96.484,-154.1338 h 50.895 l 72.122,118.6758 72.605,-118.6758 h 49.448 l -96.725,152.2041 z"
     style="font-size:494px;font-family:'YaHei Consolas Hybrid';-inkscape-font-specification:'YaHei Consolas Hybrid, Normal';white-space:pre;fill:#f0f0f0"
     id="path10977" /><path
     d="m 13164.766,5683 h -46.795 l -21.95,-68.7451 h -131.219 L 12942.61,5683 h -44.624 l 104.686,-315.2627 h 58.855 z m -81.047,-107.0977 -53.308,-168.6064 -53.307,168.6064 z"
     style="font-size:494px;font-family:'YaHei Consolas Hybrid';-inkscape-font-specification:'YaHei Consolas Hybrid, Normal';white-space:pre;fill:#f0f0f0"
     id="path10979" /><path
     d="m 13465.24,5781.8965 h -271.604 v -34.7344 h 271.604 z"
     style="font-size:494px;font-family:'YaHei Consolas Hybrid';-inkscape-font-specification:'YaHei Consolas Hybrid, Normal';white-space:pre;fill:#f0f0f0"
     id="path10981" /><path
     d="m 13734.839,5683 h -207.683 v -37.6289 l 81.53,-81.0469 q 20.02,-19.7793 32.563,-34.2519 12.543,-14.4727 19.538,-26.292 6.995,-12.0606 9.407,-22.6739 2.412,-10.6132 2.412,-22.915 0,-11.5781 -3.135,-21.9502 -3.136,-10.6133 -9.649,-18.5732 -6.512,-7.96 -16.884,-12.543 -10.373,-4.583 -24.845,-4.583 -20.021,0 -36.423,8.9248 -16.402,8.9248 -30.151,23.1562 l -23.157,-27.7392 q 17.85,-18.8145 41.006,-30.1514 23.398,-11.3369 54.273,-11.3369 20.985,0 38.111,6.2715 17.367,6.2715 29.91,18.0908 12.543,11.8193 19.297,28.9453 6.995,17.126 6.995,38.5938 0,18.0908 -4.824,33.5283 -4.824,15.4375 -14.714,30.875 -9.648,15.1963 -24.603,31.5986 -14.714,16.4024 -34.976,35.9405 l -57.167,55.7197 h 153.169 z"
     style="font-size:494px;font-family:'YaHei Consolas Hybrid';-inkscape-font-specification:'YaHei Consolas Hybrid, Normal';white-space:pre;fill:#f0f0f0"
     id="path10983" /><path
     d="m 14040.137,5525.4893 q 0,36.1816 -7.237,66.0918 -7.236,29.6689 -21.95,51.1367 -14.714,21.2265 -36.664,33.0459 -21.709,11.5781 -51.137,11.5781 -25.327,0 -46.071,-9.4072 -20.744,-9.6485 -35.458,-29.4278 -14.714,-19.7793 -22.674,-50.4131 -7.96,-30.6337 -7.96,-72.6044 0,-36.1817 7.237,-66.0918 7.477,-29.9102 21.95,-51.1368 14.714,-21.4677 36.664,-33.0459 21.95,-11.8193 51.137,-11.8193 25.327,0 46.071,9.6484 20.744,9.4073 35.458,29.4278 14.714,19.7793 22.674,50.4131 7.96,30.6338 7.96,72.6045 z m -42.453,1.4472 q 0,-8.2011 -0.724,-16.1611 -0.482,-8.2012 -1.206,-15.9199 l -133.39,99.1377 q 3.618,12.5429 9.166,23.1562 5.548,10.6133 13.267,18.332 7.96,7.4776 17.849,11.8194 10.131,4.1006 22.916,4.1006 16.402,0 29.668,-7.96 13.508,-7.96 22.916,-23.6387 9.407,-15.6787 14.472,-38.8349 5.066,-23.3975 5.066,-54.0313 z m -144.245,-2.8945 q 0,7.4775 0,14.9551 0.242,7.4775 0.965,14.4726 l 133.39,-98.6552 q -3.618,-12.3018 -9.166,-22.4327 -5.548,-10.1308 -13.267,-17.3672 -7.718,-7.4775 -17.608,-11.5781 -9.89,-4.1006 -22.191,-4.1006 -16.403,0 -29.911,7.96 -13.266,7.96 -22.673,23.8799 -9.408,15.6787 -14.473,39.0762 -5.066,23.1562 -5.066,53.79 z"
     style="font-size:494px;font-family:'YaHei Consolas Hybrid';-inkscape-font-specification:'YaHei Consolas Hybrid, Normal';white-space:pre;fill:#f0f0f0"
     id="path10985" /><path
     d="m 14328.309,5683 h -198.035 v -39.0762 h 81.047 v -230.1152 l -75.499,41.0059 -15.437,-35.6993 100.344,-52.8252 h 37.146 v 277.6338 h 70.434 z"
     style="font-size:494px;font-family:'YaHei Consolas Hybrid';-inkscape-font-specification:'YaHei Consolas Hybrid, Normal';white-space:pre;fill:#f0f0f0"
     id="path10987" /><path
     d="m 14629.024,5603.8828 q 0,20.0205 -8.201,35.6992 -8.201,15.4375 -22.915,26.0508 -14.714,10.6133 -34.734,16.1611 -20.021,5.5479 -43.418,5.5479 -25.81,0 -45.589,-5.7891 -19.538,-5.789 -32.805,-16.1611 -13.266,-10.3721 -20.02,-24.6035 -6.754,-14.2315 -6.754,-31.3574 0,-28.9453 16.161,-49.9307 16.161,-20.9854 49.931,-38.1113 -30.875,-15.6787 -45.107,-34.7344 -14.231,-19.2969 -14.231,-44.1416 0,-15.1963 6.271,-29.4277 6.272,-14.2315 18.815,-25.3272 12.784,-11.0957 31.84,-17.6084 19.055,-6.7539 44.865,-6.7539 24.362,0 42.694,5.3066 18.573,5.0655 31.116,14.7139 12.543,9.6485 18.815,23.3975 6.271,13.749 6.271,30.6338 0,27.498 -15.437,46.7949 -15.196,19.2969 -43.418,33.7695 13.99,6.9951 26.051,15.4375 12.06,8.4424 20.985,18.8145 8.925,10.372 13.749,23.1562 5.065,12.7842 5.065,28.4629 z m -49.93,-163.0586 q 0,-21.4678 -15.197,-31.8398 -14.955,-10.6133 -42.211,-10.6133 -27.016,0 -42.212,10.3721 -14.955,10.372 -14.955,31.1162 0,9.4072 3.618,17.3672 3.618,7.9599 11.095,14.955 7.719,6.9952 19.056,13.7491 11.337,6.7539 27.016,13.749 27.257,-12.7842 40.523,-26.5332 13.267,-13.9903 13.267,-32.3223 z m 4.342,166.1944 q 0,-8.9249 -2.895,-17.3672 -2.895,-8.4424 -10.372,-16.6436 -7.478,-8.2012 -20.021,-16.4023 -12.543,-8.2012 -31.839,-16.8848 -16.403,7.96 -27.74,15.9199 -11.095,7.7188 -18.09,15.9199 -6.754,7.96 -9.649,16.6436 -2.894,8.6836 -2.894,18.332 0,10.8545 4.583,19.2969 4.824,8.2012 13.025,13.9902 8.201,5.7891 19.538,8.6836 11.337,2.8946 24.604,2.8946 12.784,0 24.121,-2.6534 11.337,-2.6533 19.538,-7.9599 8.442,-5.5479 13.266,-13.749 4.825,-8.4424 4.825,-20.0205 z"
     style="font-size:494px;font-family:'YaHei Consolas Hybrid';-inkscape-font-specification:'YaHei Consolas Hybrid, Normal';white-space:pre;fill:#f0f0f0"
     id="path10989" /><path
     d="m 14891.869,5571.3193 h -144.244 v -39.5586 h 144.244 z"
     style="font-size:494px;font-family:'YaHei Consolas Hybrid';-inkscape-font-specification:'YaHei Consolas Hybrid, Normal';white-space:pre;fill:#f0f0f0"
     id="path10991" /><path
     d="m 15222.494,5683 h -198.034 v -39.0762 h 81.047 v -230.1152 l -75.499,41.0059 -15.438,-35.6993 100.344,-52.8252 h 37.147 v 277.6338 h 70.433 z"
     style="font-size:494px;font-family:'YaHei Consolas Hybrid';-inkscape-font-specification:'YaHei Consolas Hybrid, Normal';white-space:pre;fill:#f0f0f0"
     id="path10993" /><path
     d="m 15530.446,5525.4893 q 0,36.1816 -7.236,66.0918 -7.236,29.6689 -21.95,51.1367 -14.714,21.2265 -36.664,33.0459 -21.709,11.5781 -51.137,11.5781 -25.327,0 -46.071,-9.4072 -20.744,-9.6485 -35.458,-29.4278 -14.714,-19.7793 -22.674,-50.4131 -7.96,-30.6337 -7.96,-72.6044 0,-36.1817 7.236,-66.0918 7.478,-29.9102 21.95,-51.1368 14.714,-21.4677 36.664,-33.0459 21.951,-11.8193 51.137,-11.8193 25.327,0 46.071,9.6484 20.745,9.4073 35.459,29.4278 14.713,19.7793 22.673,50.4131 7.96,30.6338 7.96,72.6045 z m -42.453,1.4472 q 0,-8.2011 -0.723,-16.1611 -0.483,-8.2012 -1.207,-15.9199 l -133.389,99.1377 q 3.618,12.5429 9.166,23.1562 5.548,10.6133 13.266,18.332 7.96,7.4776 17.85,11.8194 10.131,4.1006 22.915,4.1006 16.402,0 29.669,-7.96 13.508,-7.96 22.915,-23.6387 9.407,-15.6787 14.473,-38.8349 5.065,-23.3975 5.065,-54.0313 z m -144.244,-2.8945 q 0,7.4775 0,14.9551 0.241,7.4775 0.965,14.4726 l 133.39,-98.6552 q -3.619,-12.3018 -9.166,-22.4327 -5.548,-10.1308 -13.267,-17.3672 -7.719,-7.4775 -17.608,-11.5781 -9.89,-4.1006 -22.192,-4.1006 -16.402,0 -29.91,7.96 -13.267,7.96 -22.674,23.8799 -9.407,15.6787 -14.473,39.0762 -5.065,23.1562 -5.065,53.79 z"
     style="font-size:494px;font-family:'YaHei Consolas Hybrid';-inkscape-font-specification:'YaHei Consolas Hybrid, Normal';white-space:pre;fill:#f0f0f0"
     id="path10995" /><path
     d="m 15786.055,5571.3193 h -144.244 v -39.5586 h 144.244 z"
     style="font-size:494px;font-family:'YaHei Consolas Hybrid';-inkscape-font-specification:'YaHei Consolas Hybrid, Normal';white-space:pre;fill:#f0f0f0"
     id="path10997" /><path
     d="m 16116.68,5683 h -198.034 v -39.0762 h 81.046 v -230.1152 l -75.499,41.0059 -15.437,-35.6993 100.344,-52.8252 h 37.146 v 277.6338 h 70.434 z"
     style="font-size:494px;font-family:'YaHei Consolas Hybrid';-inkscape-font-specification:'YaHei Consolas Hybrid, Normal';white-space:pre;fill:#f0f0f0"
     id="path10999" /><path
     d="m 16415.706,5507.6396 q 0,46.0713 -11.096,79.3584 -11.095,33.0459 -32.804,54.5137 -21.709,21.2266 -53.79,31.3574 -32.081,10.1309 -74.052,10.1309 h -26.292 v -36.6641 h 29.186 q 31.117,0 53.79,-6.2714 22.674,-6.2715 37.629,-18.3321 15.197,-12.3017 23.157,-29.6689 7.96,-17.6084 9.889,-40.041 l 0.965,-9.8897 q -15.196,8.9248 -34.975,14.4727 -19.78,5.3066 -42.936,5.3066 -23.88,0 -41.971,-6.9951 -18.091,-6.9951 -30.151,-19.5381 -11.819,-12.543 -17.85,-29.6689 -6.03,-17.3672 -6.03,-37.6289 0,-21.9502 7.96,-41.0059 7.96,-19.0557 22.191,-33.0459 14.473,-14.2314 34.494,-22.4326 20.02,-8.2012 44.141,-8.2012 23.398,0 43.177,7.7188 20.02,7.7187 34.493,25.0859 14.473,17.126 22.674,44.624 8.201,27.4981 8.201,66.8154 z m -110.475,-109.7509 q -13.507,0 -25.085,4.583 -11.337,4.3418 -19.78,13.0254 -8.201,8.4424 -13.025,20.9853 -4.824,12.543 -4.824,28.7041 0,14.7139 3.377,26.292 3.618,11.5781 10.854,19.7793 7.478,7.96 19.056,12.3018 11.578,4.3418 27.498,4.3418 8.925,0 18.332,-1.6885 9.648,-1.6885 18.573,-4.583 9.166,-2.8945 17.367,-6.7539 8.201,-3.8594 14.714,-8.2012 0,-31.1162 -4.583,-51.8603 -4.583,-20.9854 -13.267,-33.5284 -8.683,-12.7841 -21.226,-18.0908 -12.302,-5.3066 -27.981,-5.3066 z"
     style="font-size:494px;font-family:'YaHei Consolas Hybrid';-inkscape-font-specification:'YaHei Consolas Hybrid, Normal';white-space:pre;fill:#f0f0f0"
     id="path11001" /><path
     d="m 16743.92,5781.8965 h -271.604 v -34.7344 h 271.604 z"
     style="font-size:494px;font-family:'YaHei Consolas Hybrid';-inkscape-font-specification:'YaHei Consolas Hybrid, Normal';white-space:pre;fill:#f0f0f0"
     id="path11003" /><path
     d="m 17023.891,5381.2451 q -33.046,-6.9951 -56.926,-6.9951 -56.685,0 -56.685,59.3379 v 42.4531 h 106.133 v 34.9756 H 16910.28 V 5683 h -42.694 v -171.9834 h -77.911 v -34.9756 h 77.911 V 5436 q 0,-96.7256 100.826,-96.7256 25.086,0 55.479,5.7891 z m -253.513,59.5791 z"
     style="font-size:494px;font-family:'YaHei Consolas Hybrid';-inkscape-font-specification:'YaHei Consolas Hybrid, Normal';white-space:pre;fill:#f0f0f0"
     id="path11005" /><path
     d="m 17189.527,5475.5586 h -71.639 v -34.7344 h 114.092 v 207.2002 h 72.123 V 5683 h -194.175 v -34.9756 h 79.599 z m 14.714,-136.2842 q 6.995,0 13.026,2.6533 6.03,2.4121 10.372,6.9952 4.583,4.583 6.995,10.6132 2.653,5.7891 2.653,12.7842 0,6.7539 -2.653,12.7842 -2.412,6.0303 -6.995,10.6133 -4.342,4.583 -10.372,7.2363 -6.031,2.4121 -13.026,2.4121 -6.995,0 -13.025,-2.4121 -6.03,-2.6533 -10.613,-7.2363 -4.342,-4.583 -6.996,-10.6133 -2.412,-6.0303 -2.412,-12.7842 0,-6.9951 2.412,-12.7842 2.654,-6.0302 6.996,-10.6132 4.583,-4.5831 10.613,-6.9952 6.03,-2.6533 13.025,-2.6533 z"
     style="font-size:494px;font-family:'YaHei Consolas Hybrid';-inkscape-font-specification:'YaHei Consolas Hybrid, Normal';white-space:pre;fill:#f0f0f0"
     id="path11007" /><path
     d="m 17405.096,5440.8242 h 37.387 l 1.689,39.0762 q 10.613,-12.543 20.503,-20.7442 9.889,-8.4423 19.297,-13.5078 9.648,-5.0654 19.538,-6.9951 9.889,-2.1709 20.503,-2.1709 37.387,0 56.443,22.1914 19.297,21.9502 19.297,66.333 V 5683 h -41.971 v -154.6162 q 0,-28.4629 -10.613,-41.9707 -10.613,-13.749 -31.599,-13.749 -7.718,0 -15.196,2.4121 -7.236,2.1709 -15.196,7.9599 -7.96,5.5479 -17.367,15.1963 -9.166,9.6485 -20.745,24.1211 V 5683 h -41.97 z"
     style="font-size:494px;font-family:'YaHei Consolas Hybrid';-inkscape-font-specification:'YaHei Consolas Hybrid, Normal';white-space:pre;fill:#f0f0f0"
     id="path11009" /><path
     d="m 17858.738,5683 -0.965,-32.5635 q -19.779,19.5381 -40.282,28.2217 -20.262,8.6836 -42.694,8.6836 -20.744,0 -35.458,-5.3066 -14.714,-5.3067 -24.362,-14.4727 -9.408,-9.4072 -13.991,-21.9502 -4.341,-12.543 -4.341,-27.2568 0,-36.4229 27.015,-56.9258 27.257,-20.7442 80.323,-20.7442 h 50.172 v -21.2265 q 0,-21.4678 -13.749,-34.252 -13.749,-13.0254 -41.97,-13.0254 -20.503,0 -40.524,4.583 -19.779,4.5831 -41.006,13.0254 v -37.8701 q 7.96,-2.8945 17.609,-5.5478 9.889,-2.8946 20.744,-5.0655 10.854,-2.1709 22.674,-3.3769 11.819,-1.4473 23.879,-1.4473 21.951,0 39.559,4.8242 17.608,4.8243 29.669,14.7139 12.302,9.8897 18.814,24.8447 6.513,14.9551 6.513,35.2168 V 5683 Z m -4.583,-110.2334 h -53.307 q -15.679,0 -27.016,3.1357 -11.337,3.1358 -18.573,8.9248 -7.237,5.7891 -10.855,13.9903 -3.377,7.9599 -3.377,18.0908 0,6.9951 2.171,13.5078 2.171,6.2715 6.995,11.3369 4.825,4.8242 12.543,7.7188 7.719,2.8945 18.815,2.8945 14.472,0 33.046,-8.6836 18.814,-8.9248 39.558,-27.9805 z"
     style="font-size:494px;font-family:'YaHei Consolas Hybrid';-inkscape-font-specification:'YaHei Consolas Hybrid, Normal';white-space:pre;fill:#f0f0f0"
     id="path11011" /><path
     d="m 18083.713,5376.6621 h -71.64 v -34.4932 h 114.093 v 305.8555 h 72.122 V 5683 h -194.175 v -34.9756 h 79.6 z"
     style="font-size:494px;font-family:'YaHei Consolas Hybrid';-inkscape-font-specification:'YaHei Consolas Hybrid, Normal';white-space:pre;fill:#f0f0f0"
     id="path11013" /><path
     d="m 18532.291,5781.8965 h -271.604 v -34.7344 h 271.604 z"
     style="font-size:494px;font-family:'YaHei Consolas Hybrid';-inkscape-font-specification:'YaHei Consolas Hybrid, Normal';white-space:pre;fill:#f0f0f0"
     id="path11015" /><path
     d="m 18804.302,5557.5703 q 0,30.1514 -8.443,54.0313 -8.201,23.6386 -23.638,40.2822 -15.197,16.4023 -37.147,25.3271 -21.95,8.6836 -49.448,8.6836 -21.468,0 -43.9,-4.1006 -22.433,-4.1005 -44.383,-13.0253 v -326.5997 h 41.97 V 5436 l -1.929,44.8652 q 18.091,-24.3623 38.594,-34.2519 20.744,-10.1309 44.382,-10.1309 20.744,0 36.423,8.6836 15.679,8.6836 26.292,24.6035 10.613,15.6787 15.92,38.1114 5.307,22.1914 5.307,49.6894 z m -42.936,1.9297 q 0,-19.0557 -2.894,-34.9756 -2.654,-15.9199 -8.684,-27.2568 -6.03,-11.3369 -15.437,-17.6084 -9.408,-6.5127 -22.433,-6.5127 -7.96,0 -16.161,2.6533 -8.201,2.4121 -17.126,8.4424 -8.684,5.789 -18.573,15.6787 -9.649,9.6484 -20.745,24.1211 v 117.4697 q 12.302,4.8242 25.086,7.7188 12.785,2.6533 24.363,2.6533 14.472,0 27.498,-4.583 13.266,-4.583 23.156,-15.1963 10.131,-10.8545 15.92,-28.4629 6.03,-17.8496 6.03,-44.1416 z"
     style="font-size:494px;font-family:'YaHei Consolas Hybrid';-inkscape-font-specification:'YaHei Consolas Hybrid, Normal';white-space:pre;fill:#f0f0f0"
     id="path11017" /><path
     d="m 19043.991,5683 -0.965,-32.5635 q -19.779,19.5381 -40.282,28.2217 -20.262,8.6836 -42.694,8.6836 -20.744,0 -35.458,-5.3066 -14.714,-5.3067 -24.363,-14.4727 -9.407,-9.4072 -13.99,-21.9502 -4.342,-12.543 -4.342,-27.2568 0,-36.4229 27.016,-56.9258 27.257,-20.7442 80.323,-20.7442 h 50.172 v -21.2265 q 0,-21.4678 -13.749,-34.252 -13.749,-13.0254 -41.971,-13.0254 -20.502,0 -40.523,4.583 -19.779,4.5831 -41.006,13.0254 v -37.8701 q 7.96,-2.8945 17.609,-5.5478 9.889,-2.8946 20.744,-5.0655 10.854,-2.1709 22.674,-3.3769 11.819,-1.4473 23.879,-1.4473 21.951,0 39.559,4.8242 17.608,4.8243 29.669,14.7139 12.302,9.8897 18.814,24.8447 6.513,14.9551 6.513,35.2168 V 5683 Z m -4.583,-110.2334 h -53.307 q -15.679,0 -27.016,3.1357 -11.337,3.1358 -18.573,8.9248 -7.237,5.7891 -10.855,13.9903 -3.377,7.9599 -3.377,18.0908 0,6.9951 2.171,13.5078 2.171,6.2715 6.995,11.3369 4.825,4.8242 12.543,7.7188 7.719,2.8945 18.815,2.8945 14.472,0 33.046,-8.6836 18.814,-8.9248 39.558,-27.9805 z"
     style="font-size:494px;font-family:'YaHei Consolas Hybrid';-inkscape-font-specification:'YaHei Consolas Hybrid, Normal';white-space:pre;fill:#f0f0f0"
     id="path11019" /><path
     d="m 19186.471,5440.8242 h 37.387 l 1.689,39.0762 q 10.613,-12.543 20.503,-20.7442 9.889,-8.4423 19.297,-13.5078 9.648,-5.0654 19.538,-6.9951 9.889,-2.1709 20.503,-2.1709 37.387,0 56.443,22.1914 19.297,21.9502 19.297,66.333 V 5683 h -41.971 v -154.6162 q 0,-28.4629 -10.613,-41.9707 -10.613,-13.749 -31.599,-13.749 -7.718,0 -15.196,2.4121 -7.236,2.1709 -15.196,7.9599 -7.96,5.5479 -17.367,15.1963 -9.166,9.6485 -20.745,24.1211 V 5683 h -41.97 z"
     style="font-size:494px;font-family:'YaHei Consolas Hybrid';-inkscape-font-specification:'YaHei Consolas Hybrid, Normal';white-space:pre;fill:#f0f0f0"
     id="path11021" /><path
     d="m 19472.231,5566.9775 q 0,-30.875 8.443,-54.7548 8.442,-24.1211 23.88,-40.5235 15.678,-16.6435 37.387,-25.0859 21.951,-8.6836 48.725,-8.6836 11.578,0 22.674,1.4473 11.337,1.4472 22.191,4.583 v -101.7911 h 42.212 V 5683 h -37.629 l -1.447,-45.8301 q -17.608,25.5684 -38.111,37.8701 -20.503,12.3018 -44.383,12.3018 -20.744,0 -36.664,-8.6836 -15.679,-8.6836 -26.292,-24.3623 -10.372,-15.9199 -15.679,-38.1113 -5.307,-22.1914 -5.307,-49.2071 z m 42.936,-2.6533 q 0,43.9004 12.784,65.6094 13.026,21.4678 36.664,21.4678 15.92,0 33.529,-14.2315 17.849,-14.2314 37.387,-42.2119 v -112.4043 q -10.372,-4.8242 -22.915,-7.2363 -12.543,-2.6533 -24.845,-2.6533 -34.251,0 -53.548,22.1914 -19.056,22.1914 -19.056,69.4687 z"
     style="font-size:494px;font-family:'YaHei Consolas Hybrid';-inkscape-font-specification:'YaHei Consolas Hybrid, Normal';white-space:pre;fill:#f0f0f0"
     id="path11023" /><path
     d="m 19994.378,5525.4893 q 0,36.1816 -7.236,66.0918 -7.237,29.6689 -21.951,51.1367 -14.713,21.2265 -36.664,33.0459 -21.709,11.5781 -51.136,11.5781 -25.328,0 -46.072,-9.4072 -20.744,-9.6485 -35.458,-29.4278 -14.714,-19.7793 -22.674,-50.4131 -7.959,-30.6337 -7.959,-72.6044 0,-36.1817 7.236,-66.0918 7.477,-29.9102 21.95,-51.1368 14.714,-21.4677 36.664,-33.0459 21.95,-11.8193 51.137,-11.8193 25.327,0 46.071,9.6484 20.744,9.4073 35.458,29.4278 14.714,19.7793 22.674,50.4131 7.96,30.6338 7.96,72.6045 z m -42.453,1.4472 q 0,-8.2011 -0.724,-16.1611 -0.482,-8.2012 -1.206,-15.9199 l -133.39,99.1377 q 3.619,12.5429 9.166,23.1562 5.548,10.6133 13.267,18.332 7.96,7.4776 17.85,11.8194 10.131,4.1006 22.915,4.1006 16.402,0 29.669,-7.96 13.507,-7.96 22.915,-23.6387 9.407,-15.6787 14.472,-38.8349 5.066,-23.3975 5.066,-54.0313 z m -144.244,-2.8945 q 0,7.4775 0,14.9551 0.241,7.4775 0.965,14.4726 l 133.389,-98.6552 q -3.618,-12.3018 -9.166,-22.4327 -5.548,-10.1308 -13.266,-17.3672 -7.719,-7.4775 -17.609,-11.5781 -9.89,-4.1006 -22.191,-4.1006 -16.403,0 -29.91,7.96 -13.267,7.96 -22.674,23.8799 -9.407,15.6787 -14.473,39.0762 -5.065,23.1562 -5.065,53.79 z"
     style="font-size:494px;font-family:'YaHei Consolas Hybrid';-inkscape-font-specification:'YaHei Consolas Hybrid, Normal';white-space:pre;fill:#f0f0f0"
     id="path11025" /><path
     d="m 20289.062,5583.1387 q 0,21.709 -7.959,40.7646 -7.719,19.0557 -22.192,33.2871 -14.473,13.9903 -34.975,22.1914 -20.262,7.96 -45.107,7.96 -26.051,0 -46.071,-8.2012 -20.021,-8.4424 -33.529,-25.5683 -13.507,-17.3672 -20.502,-43.6592 -6.996,-26.292 -6.996,-62.2324 0,-24.1211 3.136,-46.795 3.136,-22.6738 10.372,-42.6943 7.237,-20.0205 19.297,-36.6641 12.061,-16.6435 29.91,-28.4628 18.091,-12.0606 42.453,-18.5733 24.363,-6.7539 56.444,-6.7539 h 31.116 v 36.6641 h -33.77 q -28.221,0 -48.965,6.7539 -20.745,6.7539 -34.735,19.0556 -13.99,12.3018 -21.468,29.669 -7.477,17.3672 -9.407,38.8349 l -0.965,9.8897 q 15.197,-8.9248 34.976,-14.2315 20.021,-5.5478 43.177,-5.5478 23.88,0 41.729,6.9951 18.091,6.9951 29.91,19.5381 12.061,12.3018 18.091,29.6689 6.03,17.3672 6.03,38.1114 z m -43.9,2.6533 q 0,-14.4727 -3.618,-26.0508 -3.377,-11.8193 -10.855,-19.7793 -7.477,-8.2012 -19.055,-12.543 -11.337,-4.583 -27.257,-4.583 -9.166,0 -18.573,1.6885 -9.408,1.6885 -18.574,4.8242 -8.924,2.8946 -17.126,6.7539 -8.201,3.8594 -14.955,8.2012 0,31.1162 4.342,52.1016 4.342,20.7441 12.784,33.2871 8.684,12.543 21.227,17.8496 12.543,5.3066 28.945,5.3066 13.749,0 25.086,-4.3418 11.578,-4.583 19.779,-13.2666 8.443,-8.6836 13.026,-20.9853 4.824,-12.543 4.824,-28.4629 z"
     style="font-size:494px;font-family:'YaHei Consolas Hybrid';-inkscape-font-specification:'YaHei Consolas Hybrid, Normal';white-space:pre;fill:#f0f0f0"
     id="path11027" /><path
     d="m 20473.997,5607.0186 q 8.201,0 15.438,3.1357 7.477,3.1357 12.784,8.6836 5.548,5.5478 8.683,13.0254 3.136,7.2363 3.136,15.6787 0,8.2012 -3.136,15.4375 -3.135,7.2363 -8.683,12.7842 -5.307,5.3066 -12.784,8.4424 -7.237,3.1357 -15.438,3.1357 -8.442,0 -15.679,-3.1357 -7.236,-3.1358 -12.784,-8.4424 -5.306,-5.5479 -8.442,-12.7842 -3.136,-7.2363 -3.136,-15.4375 0,-8.4424 3.136,-15.6787 3.136,-7.4776 8.442,-13.0254 5.548,-5.5479 12.784,-8.6836 7.237,-3.1357 15.679,-3.1357 z"
     style="font-size:494px;font-family:'YaHei Consolas Hybrid';-inkscape-font-specification:'YaHei Consolas Hybrid, Normal';white-space:pre;fill:#f0f0f0"
     id="path11029" /><path
     d="m 20871.92,5679.623 q -14.232,3.6182 -29.428,5.0655 -15.196,1.6885 -30.875,1.6885 -45.589,0 -68.021,-20.503 -22.433,-20.7441 -22.433,-63.4385 V 5476.041 h -67.78 v -35.2168 h 67.78 V 5374.25 l 41.971,-10.8545 v 77.4287 h 108.786 v 35.2168 h -108.786 v 123.0176 q 0,26.0508 13.749,39.0762 13.99,12.7841 41.006,12.7841 11.578,0 25.327,-1.6884 13.749,-1.9297 28.704,-5.7891 z"
     style="font-size:494px;font-family:'YaHei Consolas Hybrid';-inkscape-font-specification:'YaHei Consolas Hybrid, Normal';white-space:pre;fill:#f0f0f0"
     id="path11031" /><path
     d="m 21057.336,5475.5586 h -71.64 v -34.7344 h 114.093 v 207.2002 h 72.122 V 5683 h -194.175 v -34.9756 h 79.6 z m 14.714,-136.2842 q 6.995,0 13.025,2.6533 6.03,2.4121 10.372,6.9952 4.583,4.583 6.995,10.6132 2.654,5.7891 2.654,12.7842 0,6.7539 -2.654,12.7842 -2.412,6.0303 -6.995,10.6133 -4.342,4.583 -10.372,7.2363 -6.03,2.4121 -13.025,2.4121 -6.995,0 -13.026,-2.4121 -6.03,-2.6533 -10.613,-7.2363 -4.342,-4.583 -6.995,-10.6133 -2.412,-6.0303 -2.412,-12.7842 0,-6.9951 2.412,-12.7842 2.653,-6.0302 6.995,-10.6132 4.583,-4.5831 10.613,-6.9952 6.031,-2.6533 13.026,-2.6533 z"
     style="font-size:494px;font-family:'YaHei Consolas Hybrid';-inkscape-font-specification:'YaHei Consolas Hybrid, Normal';white-space:pre;fill:#f0f0f0"
     id="path11033" /><path
     d="m 21487.823,5381.2451 q -33.046,-6.9951 -56.926,-6.9951 -56.684,0 -56.684,59.3379 v 42.4531 h 106.133 v 34.9756 h -106.133 V 5683 h -42.694 v -171.9834 h -77.912 v -34.9756 h 77.912 V 5436 q 0,-96.7256 100.826,-96.7256 25.086,0 55.478,5.7891 z m -253.512,59.5791 z"
     style="font-size:494px;font-family:'YaHei Consolas Hybrid';-inkscape-font-specification:'YaHei Consolas Hybrid, Normal';white-space:pre;fill:#f0f0f0"
     id="path11035" /></g><g
   id="g10505"
   transform="translate(-5306.889,-2120.6369)"><path
     fill="#eeeeee"
     stroke="none"
     d="m 5392.9061,2157.7351 h 501 752 1757.0001 v 864 372 247 H 6645.9061 l -568,652 -184,-652 h -501 v -247 -372 z"
     id="path232-7"
     sodipodi:nodetypes="cccccccccccccc"
     style="stroke:#595959;stroke-opacity:1" /><text
     class="SVGTextShape"
     id="text279"><tspan
       class="TextParagraph"
       font-family="Arial, sans-serif"
       font-size="423px"
       font-weight="400"
       id="tspan277"><tspan
         class="TextPosition"
         x="5626"
         y="3037"
         id="tspan275"><tspan
           fill="#000000"
           stroke="none"
           style="white-space:pre"
           id="tspan273">Organisation</tspan></tspan></tspan></text></g><g
   id="g920"
   transform="translate(-5306.889,-2120.6369)"><path
     fill="#eeeeee"
     stroke="none"
     d="m 5321,7463 h 1222 l 296,-637 228,637 h 350 v 247 370 865 H 7067 6543 5321 v -865 -370 z"
     id="path259"
     style="stroke:#595959;stroke-opacity:1" /><text
     class="SVGTextShape"
     id="text306"><tspan
       class="TextParagraph"
       font-family="Arial, sans-serif"
       font-size="423px"
       font-weight="400"
       id="tspan304"><tspan
         class="TextPosition"
         x="5581"
         y="8360"
         id="tspan302"><tspan
           fill="#000000"
           stroke="none"
           style="white-space:pre"
           id="tspan300">Platform</tspan></tspan></tspan></text></g><g
   id="g10495"
   transform="translate(-4920.7024,-2124.889)"><path
     fill="#eeeeee"
     stroke="none"
     d="m 8615,2139 h 325 488 1140 v 864 372 247 H 9428 L 7190.4941,4295.6712 8940,3622 h -325 v -247 -372 z"
     id="path286"
     style="stroke:#595959;stroke-opacity:1"
     sodipodi:nodetypes="cccccccccccccc" /><text
     class="SVGTextShape"
     id="text333"><tspan
       class="TextParagraph"
       font-family="Arial, sans-serif"
       font-size="423px"
       font-weight="400"
       id="tspan331"><tspan
         class="TextPosition"
         x="8921"
         y="3037"
         id="tspan329"><tspan
           fill="#000000"
           stroke="none"
           style="white-space:pre"
           id="tspan327">Sensor</tspan></tspan></tspan></text></g><g
   id="g913"
   transform="translate(-5306.889,-2120.6369)"><path
     fill="#eeeeee"
     stroke="none"
     d="m 8131,7462 h 541 l 141,-689 668,689 h 1888 v 248 370 865 H 9481 8672 8131 v -865 -370 z"
     id="path313"
     style="stroke:#595959;stroke-opacity:1" /><text
     class="SVGTextShape"
     id="text346"><tspan
       class="TextParagraph"
       font-family="Arial, sans-serif"
       font-size="423px"
       font-weight="400"
       id="tspan344"><tspan
         class="TextPosition"
         x="8903"
         y="8109"
         id="tspan342"><tspan
           fill="#000000"
           stroke="none"
           style="white-space:pre"
           id="tspan340">Product / </tspan></tspan></tspan></text><text
     class="SVGTextShape"
     id="text373"><tspan
       class="TextParagraph"
       font-family="Arial, sans-serif"
       font-size="423px"
       font-weight="400"
       id="tspan371"><tspan
         class="TextPosition"
         x="8515"
         y="8612"
         id="tspan369"><tspan
           fill="#000000"
           stroke="none"
           style="white-space:pre"
           id="tspan367">Product suite</tspan></tspan></tspan></text></g><g
   id="g902"
   transform="translate(-5306.889,-2120.6369)"><path
     fill="#eeeeee"
     stroke="none"
     d="m 12083,7463 h 405 l -129,-637 737,637 h 1420 v 247 370 865 h -1420 -608 -405 v -865 -370 z"
     id="path353"
     style="stroke:#595959;stroke-opacity:1" /><text
     class="SVGTextShape"
     id="text397"><tspan
       class="TextParagraph"
       font-family="Arial, sans-serif"
       font-size="423px"
       font-weight="400"
       id="tspan389"><tspan
         class="TextPosition"
         x="12665"
         y="8122"
         id="tspan387"><tspan
           fill="#000000"
           stroke="none"
           style="white-space:pre"
           id="tspan385">MGRS</tspan></tspan></tspan><tspan
       class="TextParagraph"
       font-family="Arial, sans-serif"
       font-size="423px"
       font-weight="400"
       id="tspan395"><tspan
         class="TextPosition"
         x="12665"
         y="8596"
         id="tspan393"><tspan
           fill="#000000"
           stroke="none"
           style="white-space:pre"
           id="tspan391">grid tile</tspan></tspan></tspan></text></g><g
   id="g10376"
   transform="translate(-4449.357,-2120.6369)"><path
     fill="#eeeeee"
     stroke="none"
     d="m 15427,2139 h 514 771 1799 v 864 372 247 h -1799 l -1737,638 966,-638 h -514 v -247 -372 z"
     id="path404"
     style="stroke:#595959;stroke-opacity:1" /><text
     class="SVGTextShape"
     id="text424"><tspan
       class="TextParagraph"
       font-family="Arial, sans-serif"
       font-size="423px"
       font-weight="400"
       id="tspan422"><tspan
         class="TextPosition"
         x="15945"
         y="2786"
         id="tspan420"><tspan
           fill="#000000"
           stroke="none"
           style="white-space:pre"
           id="tspan418">Acquisition </tspan></tspan></tspan></text><text
     class="SVGTextShape"
     id="text451"><tspan
       class="TextParagraph"
       font-family="Arial, sans-serif"
       font-size="423px"
       font-weight="400"
       id="tspan449"><tspan
         class="TextPosition"
         x="15710"
         y="3289"
         id="tspan447"><tspan
           fill="#000000"
           stroke="none"
           style="white-space:pre"
           id="tspan445">date or range</tspan></tspan></tspan></text></g><g
   id="g892"
   transform="translate(-5306.889,-2120.6369)"><path
     fill="#eeeeee"
     stroke="none"
     d="m 15630,7462 h 1331 l 483,-676 88,676 h 380 v 248 370 865 h -380 -571 -1331 v -865 -370 z"
     id="path431"
     style="stroke:#595959;stroke-opacity:1" /><text
     class="SVGTextShape"
     id="text464"><tspan
       class="TextParagraph"
       font-family="Arial, sans-serif"
       font-size="423px"
       font-weight="400"
       id="tspan462"><tspan
         class="TextPosition"
         x="16041"
         y="8109"
         id="tspan460"><tspan
           fill="#000000"
           stroke="none"
           style="white-space:pre"
           id="tspan458">Product </tspan></tspan></tspan></text><text
     class="SVGTextShape"
     id="text491"><tspan
       class="TextParagraph"
       font-family="Arial, sans-serif"
       font-size="423px"
       font-weight="400"
       id="tspan489"><tspan
         class="TextPosition"
         x="16206"
         y="8612"
         id="tspan487"><tspan
           fill="#000000"
           stroke="none"
           style="white-space:pre"
           id="tspan485">status</tspan></tspan></tspan></text></g><path
   fill="none"
   stroke="#595959"
   stroke-width="26"
   stroke-linejoin="round"
   d="m 1772.111,3813.3631 v 298 h -254 v 298 -298 h -254 v -88 -210"
   id="path521" /><path
   fill="none"
   stroke="#595959"
   stroke-width="26"
   stroke-linejoin="round"
   d="m 1927.111,3017.3631 v -293 h 239 v -292 292 h 240 v 86 207"
   id="path538" /><path
   fill="none"
   stroke="#595959"
   stroke-width="26"
   stroke-linejoin="round"
   d="m 4088.111,3813.3631 v 298 h -594 v 298 -298 h -592 v -88 -210"
   id="path555" /><path
   fill="none"
   stroke="#595959"
   stroke-width="26"
   stroke-linejoin="round"
   d="m 4693.111,3017.3631 v -293 h 999 v -292 292 h 251 v 86 207"
   id="path572" /><path
   fill="none"
   stroke="#595959"
   stroke-width="26"
   stroke-linejoin="round"
   d="m 7693.111,3825.3631 v 293 h -620 v 291 -291 h -618 v -86 -207"
   id="path589" /><path
   fill="none"
   stroke="#595959"
   stroke-width="26"
   stroke-linejoin="round"
   d="m 8193.111,2966.3631 v -294 h 2309 v -293 293 h 441 v 86 208"
   id="path606" /><path
   fill="none"
   stroke="#595959"
   stroke-width="26"
   stroke-linejoin="round"
   d="m 12705.111,3824.3631 v 293 h -560 v 292 -292 h -561 v -85 -208"
   id="path623" /><g
   id="g10393"
   transform="translate(-4797.6338,-2120.6369)"><path
     fill="#eeeeee"
     stroke="none"
     d="m 10852,2139 h 716 1072 2502 v 864 372 247 h -2502 l -2110,652 1038,-652 h -716 v -247 -372 z"
     id="path471"
     style="stroke:#595959;stroke-opacity:1" /><text
     class="SVGTextShape"
     id="text667"><tspan
       class="TextParagraph"
       font-family="Arial, sans-serif"
       font-size="423px"
       font-weight="400"
       id="tspan665"><tspan
         class="TextPosition"
         x="11139"
         y="3289"
         id="tspan663"><tspan
           fill="#000000"
           stroke="none"
           style="white-space:pre"
           id="tspan661">(major-minor-patch)</tspan></tspan></tspan></text><text
     class="SVGTextShape"
     id="text504"><tspan
       class="TextParagraph"
       font-family="Arial, sans-serif"
       font-size="423px"
       font-weight="400"
       id="tspan502"><tspan
         class="TextPosition"
         x="12291"
         y="2786"
         id="tspan500"><tspan
           fill="#000000"
           stroke="none"
           style="white-space:pre"
           id="tspan498">Version</tspan></tspan></tspan></text></g><path
   fill="none"
   stroke="#595959"
   stroke-width="26"
   stroke-linejoin="round"
   d="m 16151.111,3762.3631 v 298 h -454 v 299 -299 h -455 v -87 -211"
   id="path640" /><g
   id="g930"
   transform="translate(-5306.889,-2120.6369)"><path
     fill="#eeeeee"
     stroke="none"
     d="m 19959.167,2139 h 286 428 1001 v 864 372 247 h -1001 L 19943.972,4285.7823 20245.167,3622 h -286 v -247 -372 z"
     id="path647"
     style="stroke:#595959;stroke-opacity:1"
     sodipodi:nodetypes="cccccccccccccc" /><text
     class="SVGTextShape"
     id="text686"
     x="1164.1667"><tspan
       class="TextParagraph"
       font-family="Arial, sans-serif"
       font-size="423px"
       font-weight="400"
       id="tspan678"><tspan
         class="TextPosition"
         x="20275.166"
         y="2786"
         id="tspan676"><tspan
           fill="#000000"
           stroke="none"
           style="white-space:pre"
           id="tspan674">Band</tspan></tspan></tspan><tspan
       class="TextParagraph"
       font-family="Arial, sans-serif"
       font-size="423px"
       font-weight="400"
       id="tspan684"><tspan
         class="TextPosition"
         x="20275.166"
         y="3260"
         id="tspan682"><tspan
           fill="#000000"
           stroke="none"
           style="white-space:pre"
           id="tspan680">name </tspan></tspan></tspan></text></g><path
   fill="none"
   stroke="#595959"
   stroke-width="26"
   stroke-linejoin="round"
   d="m 13356.111,3018.3631 v -293 h 1259 v -292 292 h 283 v 85 208"
   id="path703" /><g
   id="g827"
   transform="translate(-5306.889,-2120.6369)"><path
     fill="#eeeeee"
     stroke="none"
     d="m 18825,7462 h 1799 l 381,-663 390,663 h 515 v 248 370 865 h -515 -771 -1799 v -865 -370 z"
     id="path710"
     style="stroke:#595959;stroke-opacity:1" /><text
     class="SVGTextShape"
     id="text730"><tspan
       class="TextParagraph"
       font-family="Arial, sans-serif"
       font-size="423px"
       font-weight="400"
       id="tspan728"><tspan
         class="TextPosition"
         x="20026"
         y="8109"
         id="tspan726"><tspan
           fill="#000000"
           stroke="none"
           style="white-space:pre"
           id="tspan724">File </tspan></tspan></tspan></text><text
     class="SVGTextShape"
     id="text748"><tspan
       class="TextParagraph"
       font-family="Arial, sans-serif"
       font-size="423px"
       font-weight="400"
       id="tspan746"><tspan
         class="TextPosition"
         x="19461"
         y="8612"
         id="tspan744"><tspan
           fill="#000000"
           stroke="none"
           style="white-space:pre"
           id="tspan742">extension</tspan></tspan></tspan></text></g>
   
  
</svg>
